<?xml version="1.0" encoding="UTF-8"?>
<svg version="1.1" xmlns="http://www.w3.org/2000/svg" width="1024" height="1024">
<path d="M0 0 C3.66286021 2.77653848 5.53229084 5.71722852 7.14453125 9.94921875 C7.58692871 13.96809649 7.55774934 17.96622869 7.53894043 22.006073 C7.54503153 23.23062073 7.55112264 24.45516846 7.55739832 25.7168237 C7.57115623 29.10845926 7.57148298 32.49961008 7.56602335 35.89123702 C7.56335139 39.55187942 7.57788805 43.21246004 7.59011841 46.87307739 C7.6111676 54.04186029 7.61571356 61.21056231 7.61393052 68.37937246 C7.61262264 74.20678366 7.61642836 80.03416963 7.62385559 85.86157608 C7.6259548 87.54047525 7.6280524 89.21937442 7.63014841 90.89827359 C7.63119194 91.73392276 7.63223547 92.56957192 7.63331062 93.4305438 C7.65221091 109.23315256 7.65116343 125.0357149 7.64434129 140.83833028 C7.63876592 155.29177036 7.65959134 169.74503318 7.69270176 184.19843183 C7.72644301 199.04251859 7.74160656 213.88652044 7.73698473 228.73064625 C7.73474048 237.06316071 7.7399766 245.39551133 7.76487732 253.72799301 C7.78589608 260.82181785 7.78947684 267.91538901 7.77057773 275.00922428 C7.76142328 278.62755308 7.76026714 282.24540898 7.78093338 285.86370087 C7.80310391 289.78882779 7.78641781 293.71324863 7.76599121 297.63839722 C7.77850906 298.77828626 7.79102691 299.91817529 7.80392408 301.09260643 C7.68990603 311.30368378 3.71390823 316.76574984 -3.3046875 323.76171875 C-3.80337845 324.2609082 -4.3020694 324.76009766 -4.81587219 325.27441406 C-5.85680205 326.3130285 -6.90136423 327.34801481 -7.94946289 328.37939453 C-9.5587548 329.9647702 -11.15397177 331.56340131 -12.74804688 333.1640625 C-20.57601165 340.94921875 -20.57601165 340.94921875 -22.85546875 340.94921875 C-23.18546875 341.93921875 -23.51546875 342.92921875 -23.85546875 343.94921875 C-24.51546875 343.94921875 -25.17546875 343.94921875 -25.85546875 343.94921875 C-26.09265625 344.51125 -26.32984375 345.07328125 -26.57421875 345.65234375 C-28.14494572 348.46815917 -30.07018339 350.42877291 -32.35546875 352.69921875 C-33.14953125 353.4984375 -33.94359375 354.29765625 -34.76171875 355.12109375 C-36.85546875 356.94921875 -36.85546875 356.94921875 -38.85546875 356.94921875 C-39.08234375 357.52671875 -39.30921875 358.10421875 -39.54296875 358.69921875 C-41.2027322 361.54452753 -43.27613542 362.88575209 -45.85546875 364.94921875 C-47.66810466 366.91947517 -49.40526479 368.94475988 -51.1484375 370.9765625 C-53.28507456 373.44567397 -55.44490019 375.74527035 -57.85546875 377.94921875 C-58.51546875 377.94921875 -59.17546875 377.94921875 -59.85546875 377.94921875 C-60.12653442 378.5449469 -60.3976001 379.14067505 -60.67687988 379.75445557 C-61.83950732 381.91949544 -62.98698463 383.33408245 -64.71289062 385.06542969 C-65.28688599 385.64572937 -65.86088135 386.22602905 -66.45227051 386.82391357 C-67.07001343 387.43760803 -67.68775635 388.05130249 -68.32421875 388.68359375 C-68.96033081 389.32161926 -69.59644287 389.95964478 -70.25183105 390.61700439 C-71.59430262 391.96083449 -72.93929336 393.30215204 -74.28662109 394.64111328 C-76.3548904 396.6986434 -78.41224203 398.76665924 -80.46875 400.8359375 C-81.77409846 402.139965 -83.08006685 403.44337231 -84.38671875 404.74609375 C-85.00446167 405.36788513 -85.62220459 405.98967651 -86.25866699 406.63031006 C-90.62553802 410.94921875 -90.62553802 410.94921875 -92.85546875 410.94921875 C-92.86043397 409.09305797 -92.86043397 409.09305797 -92.8654995 407.19939899 C-92.94449811 377.83243188 -93.03371077 348.46551424 -93.13552036 319.09861826 C-93.1480394 315.48493522 -93.16047215 311.87125188 -93.17285156 308.25756836 C-93.17531756 307.53814175 -93.17778355 306.81871514 -93.18032427 306.07748773 C-93.22006004 294.42496428 -93.25280376 282.77243111 -93.28296857 271.1198794 C-93.31407035 259.16542487 -93.35267429 247.21101159 -93.39825881 235.25660342 C-93.42365067 228.54110112 -93.44556145 221.82562465 -93.45881271 215.11008644 C-93.47161834 208.79250751 -93.49365669 202.47502884 -93.52285194 196.15750504 C-93.53193942 193.83592117 -93.53762067 191.51432115 -93.53968239 189.19272041 C-93.54299661 186.02829348 -93.55845159 182.86415227 -93.57699585 179.69978333 C-93.57409375 178.31505183 -93.57409375 178.31505183 -93.57113302 176.90234596 C-93.60857952 170.68319569 -93.60857952 170.68319569 -95.85546875 164.94921875 C-99.08398778 162.79687273 -99.96776289 162.69641038 -103.69067383 162.67797852 C-104.67211868 162.6677919 -105.65356354 162.65760529 -106.66474915 162.64710999 C-107.72413193 162.64496994 -108.78351471 162.6428299 -109.875 162.640625 C-112.11653902 162.61546171 -114.35807542 162.59006374 -116.59960938 162.56445312 C-120.13483991 162.53572339 -123.67002478 162.51170782 -127.20532227 162.49291992 C-130.61629125 162.47124256 -134.02671872 162.43179591 -137.4375 162.390625 C-138.49081009 162.39050919 -139.54412018 162.39039337 -140.62934875 162.39027405 C-147.80533529 162.29367626 -152.18527958 161.27112238 -157.73046875 156.44921875 C-160.46081129 152.87398193 -160.49464218 149.2987143 -160.6171875 144.92578125 C-158.58066604 136.96768202 -150.95633181 130.77543013 -145.29907227 125.18164062 C-144.04178314 123.92632286 -144.04178314 123.92632286 -142.75909424 122.64564514 C-140.00543748 119.89844442 -137.24487027 117.15829622 -134.484375 114.41796875 C-132.55803358 112.49913302 -130.63336624 110.57862188 -128.70872498 108.65808105 C-124.1665706 104.12726648 -119.61976469 99.60115369 -115.07086176 95.07711554 C-106.93373071 86.9843962 -98.80217987 78.88607984 -90.6759333 70.78243113 C-87.37369776 67.48987915 -84.06695816 64.20189303 -80.75917053 60.91491699 C-79.01974939 59.18232829 -77.28043993 57.44962746 -75.54125977 55.71679688 C-74.76233871 54.94461319 -73.98341766 54.1724295 -73.18089294 53.37684631 C-69.07418707 49.27863225 -65.15114138 45.08795699 -61.36492252 40.69192505 C-59.55262428 38.5995764 -57.66383598 36.5975996 -55.73120117 34.61621094 C-54.63922676 33.4953006 -54.63922676 33.4953006 -53.52519226 32.35174561 C-50.23703492 29.00477013 -46.94354798 25.66321206 -43.64135742 22.33007812 C-41.90815888 20.57522071 -40.18125557 18.81412354 -38.46069336 17.046875 C-35.95447666 14.47350403 -33.42889755 11.92060315 -30.8984375 9.37109375 C-30.14080612 8.58563171 -29.38317474 7.80016968 -28.60258484 6.99090576 C-20.47398553 -1.10711091 -10.92801835 -6.18870934 0 0 Z " fill="#18191A" transform="translate(636.85546875,292.05078125)"/>
<path d="M0 0 C1.39378898 -0.00322461 2.78757764 -0.00658952 4.18136597 -0.01008606 C7.0807168 -0.0160229 9.98003806 -0.01793137 12.87939453 -0.01733398 C16.56848463 -0.01723207 20.25738355 -0.03093898 23.9464283 -0.04810619 C26.81713715 -0.05929186 29.6878005 -0.06125127 32.5585289 -0.06072426 C34.57127057 -0.06245383 36.58399804 -0.07323991 38.59671021 -0.08427429 C58.13750072 -0.03586246 58.13750072 -0.03586246 65.1796875 6.16796875 C73.14264275 16.06785906 70.32894112 33.75475596 70.32495117 45.93237305 C70.32795012 47.77863634 70.33135432 49.62489902 70.33512878 51.47116089 C70.34389318 56.44405572 70.34630354 61.41693331 70.34694457 66.38983512 C70.34765881 69.50333377 70.34980004 72.61682812 70.35244179 75.7303257 C70.36166659 86.61001486 70.36577983 97.48969183 70.36499023 108.36938477 C70.36438858 118.48508725 70.37496491 128.60073657 70.3907339 138.7164256 C70.40382871 147.42933676 70.40917339 156.14223056 70.40853482 164.85515147 C70.40828063 170.04706088 70.41108909 175.23892284 70.42171288 180.43082237 C70.43142791 185.31058423 70.43144978 190.19025355 70.42419624 195.07001877 C70.42315499 196.85373763 70.42548582 198.63746236 70.4315567 200.42117119 C70.51332851 226.1231756 70.51332851 226.1231756 65.1796875 232.16796875 C58.49397307 237.25492538 53.13914984 238.28560308 44.76245117 238.32910156 C44.03330002 238.33406647 43.30414886 238.33903137 42.55290222 238.34414673 C40.15114381 238.35869921 37.74945143 238.36555872 35.34765625 238.37109375 C33.67002868 238.37685083 31.99240112 238.38260849 30.31477356 238.3883667 C26.80025935 238.39885698 23.28576788 238.40471256 19.77124023 238.40820312 C15.28242256 238.4136841 10.79390876 238.43771192 6.30518627 238.46617508 C2.84006387 238.48485912 -0.62498614 238.49001012 -4.09015465 238.491539 C-5.74425607 238.49455298 -7.3983566 238.50253884 -9.05240822 238.51572418 C-11.37346734 238.53290631 -13.69379452 238.53087531 -16.01489258 238.52441406 C-17.3321785 238.52805969 -18.64946442 238.53170532 -20.00666809 238.53546143 C-26.4910127 237.91061315 -32.15296679 235.83531446 -36.8203125 231.16796875 C-43.46499318 221.67556778 -40.96343406 205.60384155 -40.94970703 194.4152832 C-40.95106444 192.54636603 -40.95284628 190.67744912 -40.95501709 188.80853271 C-40.95955004 183.7654047 -40.95781923 178.72229729 -40.954638 173.67916894 C-40.95209406 168.38630639 -40.95445749 163.09344551 -40.95602417 157.80058289 C-40.95783946 148.91807745 -40.95545587 140.03558034 -40.95068359 131.15307617 C-40.94523718 120.89765389 -40.94700897 110.64225148 -40.95251 100.38682967 C-40.95705337 91.56188993 -40.95768583 82.73695615 -40.95507133 73.91201562 C-40.95351595 68.64973289 -40.95329462 63.3874595 -40.95660782 58.12517738 C-40.9595045 53.1798065 -40.95747786 48.23446116 -40.95171356 43.28909302 C-40.95039581 41.47873667 -40.95076328 39.66837816 -40.95297623 37.85802269 C-40.95572647 35.37885598 -40.95225964 32.89977014 -40.94729614 30.42060852 C-40.94952686 29.71183841 -40.95175759 29.00306829 -40.95405591 28.27282029 C-40.89601579 13.23061435 -40.89601579 13.23061435 -35.8203125 7.16796875 C-25.80589387 -1.84500801 -12.7429525 0.01085297 0 0 Z " fill="#18191A" transform="translate(438.8203125,495.83203125)"/>
<path d="M0 0 C0.33 0 0.66 0 1 0 C1.00146656 1.07159929 1.00293312 2.14319859 1.00444412 3.24727058 C1.04102543 29.31151734 1.10045706 55.37563546 1.18390274 81.43977547 C1.22372632 94.0441624 1.25610198 106.64848661 1.27099609 119.25292969 C1.28399537 130.23788542 1.310916 141.2227033 1.35461307 152.2075814 C1.37726654 158.02498561 1.39290834 163.84221955 1.39188385 169.65967178 C1.39113954 175.13442341 1.40899827 180.60879809 1.44116783 186.08345222 C1.44969151 188.09338602 1.45140009 190.10336197 1.44580269 192.11330605 C1.43917849 194.85732097 1.45704544 197.60013106 1.48101807 200.34402466 C1.47325765 201.1397558 1.46549723 201.93548695 1.45750165 202.75533116 C1.55330688 208.94821314 3.5694658 212.5694658 8 217 C7.34 217.33 6.68 217.66 6 218 C-1.07960628 211.29300458 -1.58291858 206.49613862 -2 197 C-2.16353661 190.7342801 -2.14727699 184.4670808 -2.14526367 178.19970703 C-2.14826099 176.32592197 -2.15166483 174.45213753 -2.15544128 172.57835388 C-2.16422082 167.5230344 -2.16661665 162.46773187 -2.16725707 157.41240549 C-2.16797028 154.25104886 -2.17010956 151.08969648 -2.17275429 147.92834091 C-2.1819831 136.89232868 -2.1860917 125.85632847 -2.18530273 114.8203125 C-2.18470051 104.54095792 -2.19528687 94.26165558 -2.2110464 83.98231423 C-2.2241157 75.14213411 -2.22948699 66.30197109 -2.22884732 57.46178138 C-2.22859244 52.18784165 -2.23143943 46.91394854 -2.24202538 41.64001846 C-2.25169765 36.68725 -2.25179153 31.73457288 -2.24450874 26.78180122 C-2.24346228 24.9653453 -2.24582946 23.1488837 -2.2518692 21.33243752 C-2.25958236 18.85214277 -2.25494908 16.37216412 -2.24723816 13.89187622 C-2.25238172 13.17436758 -2.25752529 12.45685894 -2.26282471 11.71760762 C-2.23347735 7.44278152 -1.56188439 3.97671551 0 0 Z " fill="#121212" transform="translate(400,512)"/>
<path d="M0 0 C2.68561729 2.68561729 2.24427264 4.73987144 2.26748681 8.3901962 C2.26302537 9.29601489 2.25856392 10.20183358 2.25396729 11.13510132 C2.25708727 12.09362271 2.26020725 13.0521441 2.26342177 14.03971159 C2.27143914 17.27181574 2.26506356 20.50373409 2.25878906 23.73583984 C2.2614973 26.0448874 2.26505729 28.35393409 2.26940918 30.66297913 C2.27855635 36.95014025 2.27497908 43.23723601 2.26865101 49.52439833 C2.26360182 56.09289704 2.26827955 62.66139 2.27142334 69.22988892 C2.27570091 80.97228933 2.26906772 92.71466216 2.25890467 104.45705779 C2.24997289 115.10647781 2.25151712 125.75585421 2.26074219 136.40527344 C2.27144313 148.76427097 2.27543004 161.12324069 2.26951766 173.48224223 C2.26639507 180.02722828 2.26599642 186.57218429 2.27259064 193.11716843 C2.27835747 199.27141505 2.27437929 205.42557914 2.26280212 211.57981682 C2.26015176 213.84216741 2.26092701 216.10452492 2.26532745 218.36687279 C2.27076959 221.44832024 2.26396478 224.52950106 2.25396729 227.6109314 C2.25842873 228.51228864 2.26289017 229.41364588 2.26748681 230.34231699 C2.26227132 231.16764574 2.25705582 231.9929745 2.25168228 232.84331322 C2.25135758 233.55458441 2.25103287 234.26585561 2.25069833 234.99868047 C1.95834967 237.33249369 1.15114877 238.96474796 0 241 C-0.1502946 210.87571477 -0.29540184 180.75140796 -0.4332476 150.62706326 C-0.44951897 147.07217611 -0.46583466 143.51728916 -0.48217773 139.96240234 C-0.48543066 139.25467588 -0.48868358 138.54694943 -0.49203508 137.81777671 C-0.54484064 126.35207959 -0.60123798 114.8864028 -0.6589582 103.42072949 C-0.71808624 91.65955731 -0.77336485 79.8983716 -0.82505554 68.13716435 C-0.85426387 61.52954467 -0.88527513 54.92194434 -0.92053413 48.31435394 C-0.95364175 42.09944101 -0.9820155 35.88452473 -1.00670624 29.66957283 C-1.01662785 27.38463828 -1.0283019 25.09971059 -1.04183006 22.81479454 C-1.05999757 19.70268033 -1.07194332 16.59060317 -1.08229065 13.47845459 C-1.09249633 12.11269952 -1.09249633 12.11269952 -1.10290819 10.71935344 C-1.10440054 9.88582449 -1.10589289 9.05229555 -1.10743046 8.19350815 C-1.11084794 7.47507728 -1.11426542 6.75664642 -1.11778647 6.01644492 C-0.99433505 3.90301899 -0.57698014 2.03277191 0 0 Z " fill="#030303" transform="translate(544,459)"/>
<path d="M0 0 C3.81477116 0.54496731 5.52338148 2.11061173 8 5 C14.42783834 15.60069048 11.12604986 35.34328894 11.09765625 47.3359375 C11.09578772 49.67005381 11.09436587 52.00417051 11.09336853 54.33828735 C11.08957761 60.43730785 11.07977714 66.53630397 11.06866455 72.63531494 C11.05837622 78.87666494 11.05385511 85.11801894 11.04882812 91.359375 C11.03815132 103.57292729 11.02111677 115.78646161 11 128 C10.34 128 9.68 128 9 128 C8.505 129.98 8.505 129.98 8 132 C7.99853344 131.37162169 7.99706688 130.74324337 7.99555588 130.09582329 C7.95848326 114.79681587 7.89946276 99.49806345 7.81609726 84.19924736 C7.77630975 76.80079669 7.74391587 69.40245233 7.72900391 62.00390625 C7.7159858 55.55434374 7.6890174 49.10501519 7.64538693 42.65558445 C7.62277528 39.24148025 7.60708911 35.82766458 7.60811615 32.41347885 C7.6057548 28.59935043 7.5787393 24.78613873 7.54589844 20.97216797 C7.5509288 19.84359879 7.55595917 18.7150296 7.56114197 17.55226135 C7.46099422 10.04313785 6.37969512 6.62110191 1.25 1.125 C0.8375 0.75375 0.425 0.3825 0 0 Z " fill="#0B0B0C" transform="translate(498,500)"/>
<path d="M0 0 C1.15104996 4.12361937 1.11873801 8.08734966 1.08229065 12.33953857 C1.07906152 13.18825161 1.07583239 14.03696465 1.07250541 14.91139627 C1.06042669 17.75966135 1.04105452 20.60783023 1.02172852 23.45605469 C1.01158611 25.4960255 1.0018924 27.53599858 0.99261475 29.57597351 C0.96612989 35.11897956 0.9333511 40.6619328 0.89946485 46.20489788 C0.86512569 51.99581245 0.83654361 57.78675533 0.80735779 63.57769775 C0.75120064 74.5459143 0.68984601 85.51409541 0.62663645 96.48227334 C0.55493223 108.96820208 0.48900332 121.45415921 0.42356598 133.94012213 C0.28881574 159.62678492 0.14679181 185.3134034 0 211 C-0.33 211 -0.66 211 -1 211 C-1.00423194 209.94201832 -1.00846388 208.88403664 -1.01282406 207.7939949 C-1.11593407 182.07265564 -1.22467174 156.35134488 -1.33933926 130.63005447 C-1.39466035 118.1915303 -1.44814054 105.75300325 -1.49731445 93.31445312 C-1.5401699 82.47533183 -1.58645138 71.63623156 -1.63687855 60.79714274 C-1.66346848 55.055862 -1.68832133 49.31458539 -1.70907402 43.57328033 C-1.72864977 38.17253769 -1.75279645 32.77183501 -1.78049088 27.37112808 C-1.78985632 25.38614502 -1.79753342 23.40115319 -1.80341911 21.41615677 C-1.81168885 18.7112521 -1.82596807 16.00644424 -1.84178162 13.30157471 C-1.84275972 12.51169072 -1.84373783 11.72180674 -1.84474558 10.90798688 C-1.87094437 7.43578562 -2.07156907 4.34114967 -3 1 C-2.01 1.495 -2.01 1.495 -1 2 C-0.67 1.34 -0.34 0.68 0 0 Z " fill="#212324" transform="translate(402,508)"/>
<path d="M0 0 C2.92664806 0.00534681 5.85314183 0.00003489 8.77978516 -0.00634766 C18.92354041 -0.00957261 28.95798658 0.18210156 39.06494141 1.13037109 C36.30041065 3.89490185 34.67102681 3.39323804 30.79858398 3.41748047 C28.82061577 3.43760193 28.82061577 3.43760193 26.8026886 3.45812988 C25.74171683 3.46197441 25.74171683 3.46197441 24.65931129 3.46589661 C22.44332698 3.47418146 20.22775567 3.49468567 18.0118866 3.51843262 C13.30046626 3.56671589 8.58900415 3.59957108 3.87744141 3.63037109 C-1.56603516 3.66610112 -7.00931276 3.70822308 -12.45260048 3.76631165 C-14.62778565 3.78627471 -16.80281577 3.79468101 -18.97807312 3.8026123 C-20.3259638 3.8155983 -21.67384946 3.82912058 -23.02172852 3.84326172 C-24.77473518 3.85419861 -24.77473518 3.85419861 -26.56315613 3.86535645 C-30.25988362 4.15590071 -33.43624648 4.91221246 -36.93505859 6.13037109 C-38.2848594 7.91302995 -38.2848594 7.91302995 -38.93505859 10.13037109 C-39.92385064 11.80371148 -40.92154195 13.47188932 -41.93505859 15.13037109 C-42.59521484 13.35302734 -42.59521484 13.35302734 -42.93505859 11.13037109 C-40.2864662 6.33817084 -36.08107642 2.84571037 -30.93505859 1.13037109 C-20.73908292 -0.38216864 -10.2798124 -0.02232129 0 0 Z " fill="#121112" transform="translate(442.93505859375,495.86962890625)"/>
<path d="M0 0 C0.495 1.485 0.495 1.485 1 3 C-0.28548409 4.33929505 -1.57858155 5.67128643 -2.875 7 C-3.59429688 7.7425 -4.31359375 8.485 -5.0546875 9.25 C-7 11 -7 11 -9 11 C-9.226875 11.5775 -9.45375 12.155 -9.6875 12.75 C-11.34726345 15.59530878 -13.42066667 16.93653334 -16 19 C-17.81263591 20.97025642 -19.54979604 22.99554113 -21.29296875 25.02734375 C-23.42960581 27.49645522 -25.58943144 29.7960516 -28 32 C-28.66 32 -29.32 32 -30 32 C-30.27106567 32.59572815 -30.54213135 33.1914563 -30.82141113 33.80523682 C-31.98403857 35.97027669 -33.13151588 37.3848637 -34.85742188 39.11621094 C-35.43141724 39.69651062 -36.0054126 40.2768103 -36.59680176 40.87469482 C-37.21454468 41.48838928 -37.8322876 42.10208374 -38.46875 42.734375 C-39.10486206 43.37240051 -39.74097412 44.01042603 -40.3963623 44.66778564 C-41.73883387 46.01161574 -43.08382461 47.35293329 -44.43115234 48.69189453 C-46.49942165 50.74942465 -48.55677328 52.81744049 -50.61328125 54.88671875 C-51.91862971 56.19074625 -53.2245981 57.49415356 -54.53125 58.796875 C-55.14899292 59.41866638 -55.76673584 60.04045776 -56.40319824 60.68109131 C-60.77006927 65 -60.77006927 65 -63 65 C-63 62 -63 62 -61.70043945 60.62278748 C-61.07355225 60.12263626 -60.44666504 59.62248505 -59.80078125 59.10717773 C-56.04148046 55.953367 -52.51085224 52.624647 -49.04296875 49.15649414 C-48.50123016 48.61529655 -47.95949158 48.07409895 -47.40133667 47.51650143 C-45.66142472 45.77466983 -43.9244301 44.02996089 -42.1875 42.28515625 C-40.96604016 41.06182777 -39.74435671 39.83872252 -38.52246094 38.61582947 C-35.3310039 35.42058239 -32.14256333 32.22234214 -28.95477295 29.0234375 C-25.69174138 25.75011567 -22.42582256 22.47967726 -19.16015625 19.20898438 C-12.77063203 12.80878491 -6.38429549 6.40541493 0 0 Z " fill="#131313" transform="translate(607,638)"/>
<path d="M0 0 C-0.818386 0.49864059 -0.818386 0.49864059 -1.65330505 1.00735474 C-7.84009495 4.93221999 -12.85669562 9.45989012 -17.97265625 14.6796875 C-18.78117538 15.49245148 -19.58969452 16.30521545 -20.42271423 17.14260864 C-22.97650714 19.71305138 -25.51960658 22.29377877 -28.0625 24.875 C-29.8033373 26.63090177 -31.5448673 28.38611707 -33.28710938 30.140625 C-37.53277845 34.41918144 -41.76974299 38.70620773 -46 43 C-46.495 41.515 -46.495 41.515 -47 40 C-41.52608144 34.4754034 -36.04436212 28.95863764 -30.55712891 23.44726562 C-28.69106058 21.57113501 -26.82679061 19.6932139 -24.96435547 17.81347656 C-22.288232 15.11311543 -19.60572384 12.41924289 -16.921875 9.7265625 C-16.08944275 8.88380768 -15.2570105 8.04105286 -14.39935303 7.17276001 C-13.61884583 6.39210175 -12.83833862 5.61144348 -12.03417969 4.80712891 C-11.35023132 4.11873932 -10.66628296 3.43034973 -9.96160889 2.72109985 C-6.54057502 -0.28048774 -4.43940239 -1.58550085 0 0 Z " fill="#121213" transform="translate(623,292)"/>
<path d="M0 0 C-1.39080525 3.13738154 -3.01022204 5.25475281 -5.43994141 7.66699219 C-6.14051666 8.36741638 -6.84109192 9.06784058 -7.56289673 9.78948975 C-8.69578629 10.90689545 -8.69578629 10.90689545 -9.8515625 12.046875 C-10.62559418 12.81807678 -11.39962585 13.58927856 -12.19711304 14.3838501 C-14.66841923 16.84396856 -17.14659183 19.29703848 -19.625 21.75 C-21.30254052 23.41750894 -22.97962945 25.08547232 -24.65625 26.75390625 C-28.76560919 30.8412237 -32.88062647 34.92277696 -37 39 C-37.495 37.515 -37.495 37.515 -38 36 C-32.91664561 30.86609064 -27.82558835 25.73991618 -22.72900391 20.61914062 C-20.99478037 18.87483628 -19.26235294 17.12874434 -17.53173828 15.38085938 C-15.04925855 12.87422271 -12.56046935 10.37400718 -10.0703125 7.875 C-8.90461227 6.69381592 -8.90461227 6.69381592 -7.71536255 5.48876953 C-6.99476654 4.76802246 -6.27417053 4.04727539 -5.53173828 3.3046875 C-4.57909592 2.3453833 -4.57909592 2.3453833 -3.60720825 1.36669922 C-2 0 -2 0 0 0 Z " fill="#111112" transform="translate(535,376)"/>
<path d="M0 0 C0.66 0 1.32 0 2 0 C0.69320845 5.26739025 -1.79184687 8.35582539 -5.59375 12.0546875 C-6.14107788 12.60109894 -6.68840576 13.14751038 -7.25231934 13.71047974 C-8.40420844 14.85635445 -9.56092701 15.99739266 -10.72216797 17.13378906 C-12.50491616 18.8798149 -14.27092835 20.6415319 -16.03515625 22.40625 C-17.15791126 23.5191812 -18.28157769 24.63119386 -19.40625 25.7421875 C-19.9364978 26.27020966 -20.46674561 26.79823181 -21.01306152 27.34225464 C-24.76780677 31 -24.76780677 31 -27 31 C-27.495 32.485 -27.495 32.485 -28 34 C-30.0625 34.6875 -30.0625 34.6875 -32 35 C-28.31434412 30.48313852 -24.37759995 26.3051717 -20.234375 22.20703125 C-19.71202271 21.69018768 -19.18967041 21.17334412 -18.65148926 20.64083862 C-16.46325968 18.48031601 -14.2714356 16.32352209 -12.07519531 14.17114258 C-10.45718678 12.58333497 -8.84545733 10.98936179 -7.234375 9.39453125 C-6.73854919 8.91216507 -6.24272339 8.42979889 -5.73187256 7.93281555 C-3.24812073 5.46726835 -1.3203816 3.26310561 0 0 Z " fill="#121112" transform="translate(641,602)"/>
<path d="M0 0 C0.99 0.33 1.98 0.66 3 1 C-3.49461666 8.7435814 -3.49461666 8.7435814 -7.25 11.6875 C-11.3810763 15.16135962 -12.99843042 18.02342535 -13.6875 23.3125 C-13.790625 24.529375 -13.89375 25.74625 -14 27 C-14.66 27 -15.32 27 -16 27 C-16.62077212 22.03382301 -16.64536822 18.21126422 -13.625 14.0625 C-9.42605104 9.06615448 -4.69359641 4.52663053 0 0 Z " fill="#101011" transform="translate(493,416)"/>
<path d="M0 0 C-2 2 -2 2 -5.07275391 2.22705078 C-6.36101074 2.21657715 -7.64926758 2.20610352 -8.9765625 2.1953125 C-10.00443375 2.19106766 -10.00443375 2.19106766 -11.05307007 2.18673706 C-13.24389027 2.17553281 -15.43430316 2.15042859 -17.625 2.125 C-19.1093691 2.11497048 -20.5937446 2.10584458 -22.078125 2.09765625 C-25.71888261 2.07559294 -29.35940156 2.04106176 -33 2 C-32.67 1.34 -32.34 0.68 -32 0 C-21.48009948 -1.86984321 -10.57889018 -0.77962343 0 0 Z " fill="#050506" transform="translate(482,497)"/>
<path d="M0 0 C0.33 0 0.66 0 1 0 C1.94986041 16.74640517 1.94986041 33.25359483 1 50 C0.67 50 0.34 50 0 50 C-1.12504146 33.22482816 -0.93705971 16.78340872 0 0 Z " fill="#040304" transform="translate(507,550)"/>
<path d="M0 0 C7.06576669 -0.07595253 14.13142844 -0.12855861 21.19750977 -0.16479492 C23.60217218 -0.17989816 26.00680698 -0.20038208 28.41137695 -0.22631836 C31.86416431 -0.26263351 35.31658804 -0.279711 38.76953125 -0.29296875 C39.84773636 -0.30845261 40.92594147 -0.32393646 42.03681946 -0.33988953 C43.03763046 -0.34011612 44.03844147 -0.34034271 45.06958008 -0.34057617 C45.95116287 -0.34723801 46.83274567 -0.35389984 47.74104309 -0.36076355 C50.44146632 0.07050376 51.31165959 0.90529413 53 3 C52.23413574 2.84152588 51.46827148 2.68305176 50.67919922 2.51977539 C45.82460687 1.83394745 41.03017985 1.76567903 36.1328125 1.68359375 C35.09808807 1.66281265 34.06336365 1.64203156 32.99728394 1.62062073 C29.70658726 1.5554718 26.41581383 1.49640191 23.125 1.4375 C20.88801304 1.3942818 18.65103371 1.35066647 16.4140625 1.30664062 C10.94278842 1.19982611 5.47143874 1.09799663 0 1 C0 0.67 0 0.34 0 0 Z " fill="#020202" transform="translate(489,452)"/>
<path d="M0 0 C0.66 0.33 1.32 0.66 2 1 C0.73034469 2.43854058 -0.54077218 3.87579127 -1.8125 5.3125 C-2.52019531 6.11300781 -3.22789062 6.91351563 -3.95703125 7.73828125 C-7.5510083 11.71708185 -7.5510083 11.71708185 -9 13 C-9.66 13 -10.32 13 -11 13 C-11.2475 13.598125 -11.495 14.19625 -11.75 14.8125 C-13.16370012 17.28647521 -14.65055383 18.43370255 -17 20 C-16.42619828 16.33622257 -15.02730342 14.67232775 -12.40234375 12.109375 C-11.68369141 11.40039062 -10.96503906 10.69140625 -10.22460938 9.9609375 C-9.46986328 9.23132813 -8.71511719 8.50171875 -7.9375 7.75 C-7.17888672 7.00492187 -6.42027344 6.25984375 -5.63867188 5.4921875 C-3.76567793 3.65453306 -1.88604389 1.82424276 0 0 Z " fill="#0B0B0C" transform="translate(571,338)"/>
<path d="M0 0 C0.33 0 0.66 0 1 0 C1 3.3 1 6.6 1 10 C1.66 10 2.32 10 3 10 C3 11.32 3 12.64 3 14 C2.34 14 1.68 14 1 14 C1 20.6 1 27.2 1 34 C0.67 34 0.34 34 0 34 C0 22.78 0 11.56 0 0 Z " fill="#101011" transform="translate(506,536)"/>
<path d="M0 0 C3.67591895 1.0210886 4.9339798 1.91435217 7.3125 5 C9 8 9 8 9 10 C8.34 10 7.68 10 7 10 C5.52734375 8.3203125 5.52734375 8.3203125 3.9375 6.125 C3.41027344 5.40570313 2.88304687 4.68640625 2.33984375 3.9453125 C1 2 1 2 0 0 Z " fill="#101010" transform="translate(634,292)"/>
<path d="M0 0 C3.77528304 1.25842768 4.10667045 2.62493429 6 6 C6.66 6.66 7.32 7.32 8 8 C7.01 8.495 7.01 8.495 6 9 C0.42857143 3.85714286 0.42857143 3.85714286 0 0 Z " fill="#0F0F0F" transform="translate(400,721)"/>
<path d="M0 0 C0.99 0.33 1.98 0.66 3 1 C0.69 3.31 -1.62 5.62 -4 8 C-4.33 7.01 -4.66 6.02 -5 5 C-3.35 3.35 -1.7 1.7 0 0 Z " fill="#0E0F0F" transform="translate(542,367)"/>
<path d="M0 0 C3.43595166 1.52708963 6.11912454 3.59927045 9 6 C6.75 6.25 6.75 6.25 4 6 C1.6875 4.125 1.6875 4.125 0 2 C0 1.34 0 0.68 0 0 Z " fill="#0B0B0B" transform="translate(479,446)"/>
<path d="M0 0 C0 0.99 0 1.98 0 3 C-2.27837542 5.27837542 -3.50812237 5.96646289 -6.75 6.1875 C-7.86375 6.0946875 -7.86375 6.0946875 -9 6 C-6.30351311 3.30351311 -3.33388038 1.85215576 0 0 Z " fill="#0B0B0C" transform="translate(502,726)"/>
<path d="M0 0 C0.99 0.33 1.98 0.66 3 1 C-0.465 3.97 -0.465 3.97 -4 7 C-3.04065919 3.16263678 -2.76390737 2.40339772 0 0 Z " fill="#0D0D0E" transform="translate(550,359)"/>
<path d="M0 0 C1.98 0 3.96 0 6 0 C6 0.33 6 0.66 6 1 C4.02 1 2.04 1 0 1 C0 0.67 0 0.34 0 0 Z " fill="#333133" transform="translate(444,735)"/>
<path d="M0 0 C1.65 0 3.3 0 5 0 C5 0.33 5 0.66 5 1 C3.35 1 1.7 1 0 1 C0 0.67 0 0.34 0 0 Z " fill="#333232" transform="translate(468,735)"/>
<path d="M0 0 C1.65 0 3.3 0 5 0 C5 0.33 5 0.66 5 1 C3.35 1 1.7 1 0 1 C0 0.67 0 0.34 0 0 Z " fill="#2D2C2D" transform="translate(500,455)"/>
<path d="M0 0 C4 1 4 1 4 1 Z " fill="#2D2C2E" transform="translate(515,455)"/>
<path d="M0 0 C3 1 3 1 3 1 Z " fill="#323031" transform="translate(463,735)"/>
<path d="M0 0 C3 1 3 1 3 1 Z " fill="#2D2C2C" transform="translate(525,455)"/>
<path d="M0 0 C3 1 3 1 3 1 Z " fill="#2D2C2F" transform="translate(508,455)"/>
<path d="M0 0 C2 1 2 1 2 1 Z " fill="#313233" transform="translate(476,735)"/>
<path d="M0 0 C2 1 2 1 2 1 Z " fill="#323134" transform="translate(460,735)"/>
<path d="M0 0 C2 1 2 1 2 1 Z " fill="#323132" transform="translate(455,735)"/>
<path d="M0 0 C2 1 2 1 2 1 Z " fill="#313233" transform="translate(452,735)"/>
<path d="M0 0 C2 1 2 1 2 1 Z " fill="#333334" transform="translate(436,735)"/>
<path d="M0 0 C2 1 2 1 2 1 Z " fill="#2F2F2F" transform="translate(495,455)"/>
<path d="" fill="#333335" transform="translate(0,0)"/>
<path d="" fill="#343434" transform="translate(0,0)"/>
<path d="" fill="#343334" transform="translate(0,0)"/>
<path d="" fill="#353334" transform="translate(0,0)"/>
<path d="" fill="#333033" transform="translate(0,0)"/>
<path d="" fill="#333333" transform="translate(0,0)"/>
<path d="" fill="#2F3032" transform="translate(0,0)"/>
<path d="" fill="#353534" transform="translate(0,0)"/>
<path d="" fill="#313532" transform="translate(0,0)"/>
<path d="" fill="#333334" transform="translate(0,0)"/>
<path d="" fill="#343437" transform="translate(0,0)"/>
<path d="" fill="#39393B" transform="translate(0,0)"/>
<path d="" fill="#2C2B2D" transform="translate(0,0)"/>
<path d="" fill="#2B2B2C" transform="translate(0,0)"/>
<path d="" fill="#2C2C2D" transform="translate(0,0)"/>
<path d="" fill="#312F31" transform="translate(0,0)"/>
<path d="" fill="#323233" transform="translate(0,0)"/>
<path d="" fill="#343134" transform="translate(0,0)"/>
<path d="" fill="#333537" transform="translate(0,0)"/>
<path d="" fill="#353437" transform="translate(0,0)"/>
<path d="" fill="#353537" transform="translate(0,0)"/>
</svg>
