<?xml version="1.0" encoding="UTF-8"?>
<svg version="1.1" xmlns="http://www.w3.org/2000/svg" width="1024" height="1024">
<path d="M0 0 C0.9874823 -0.00276947 1.9749646 -0.00553894 2.99237061 -0.00839233 C5.81396336 -0.01417224 8.63543835 -0.01240707 11.45703125 -0.0078125 C12.32263168 -0.00978134 13.18823212 -0.01175018 14.08006287 -0.01377869 C20.07219232 0.00969232 20.07219232 0.00969232 21.1875 1.125 C23.17013929 1.37836575 25.16063012 1.57056249 27.15234375 1.73828125 C28.41433594 1.84962402 29.67632813 1.9609668 30.9765625 2.07568359 C31.65235352 2.13423523 32.32814453 2.19278687 33.02441406 2.25311279 C58.94003241 4.5279583 84.73949852 8.25612905 109.76196289 15.55444336 C112.4211643 16.27765284 112.4211643 16.27765284 116.1875 16.125 C116.1875 16.785 116.1875 17.445 116.1875 18.125 C117.09085083 18.27521606 117.09085083 18.27521606 118.01245117 18.4284668 C124.50129843 19.60353349 130.38401847 21.50120128 136.5 23.9375 C137.34755859 24.26814453 138.19511719 24.59878906 139.06835938 24.93945312 C140.83407717 25.62854599 142.59811525 26.3219558 144.3605957 27.01928711 C146.32474575 27.78754305 148.29518145 28.53984324 150.27026367 29.27954102 C158.32423627 32.30350971 166.09924049 35.76176762 173.875 39.4375 C176.16895212 40.52036727 178.46444517 41.59997832 180.76171875 42.67578125 C181.75776123 43.14669189 182.75380371 43.61760254 183.7800293 44.1027832 C186.05840418 45.25527677 186.05840418 45.25527677 188.1875 45.125 C188.1875 45.785 188.1875 46.445 188.1875 47.125 C191.80947194 48.61640021 195.46316618 49.9124262 199.1875 51.125 C199.1875 51.785 199.1875 52.445 199.1875 53.125 C203.11188786 54.78989182 207.07850419 55.99704037 211.1875 57.125 C209.9098909 62.36627588 207.56512557 65.15021405 203.5625 68.5625 C203.02197998 69.03985596 202.48145996 69.51721191 201.92456055 70.0090332 C200.35464929 71.3919111 198.77247797 72.75944845 197.1875 74.125 C195.79154131 75.35402429 194.39568722 76.58316742 193 77.8125 C192.07767578 78.60914063 192.07767578 78.60914063 191.13671875 79.421875 C189.66595467 80.70695143 188.21322391 82.01270875 186.76953125 83.328125 C185.95871094 84.06546875 185.14789062 84.8028125 184.3125 85.5625 C183.57257813 86.24183594 182.83265625 86.92117188 182.0703125 87.62109375 C180.1875 89.125 180.1875 89.125 178.1875 89.125 C177.8575 90.115 177.5275 91.105 177.1875 92.125 C175.71940495 93.43653763 174.18554216 94.67494075 172.625 95.875 C167.64227696 99.84439724 162.98986051 104.04757853 158.375 108.4375 C152.78627975 113.74231723 147.09340275 118.86194419 141.20922852 123.8359375 C136.80771762 127.56481113 132.5383063 131.4163497 128.30371094 135.33300781 C125.63130044 137.80413386 122.93861349 140.24183379 120.1875 142.625 C116.30777047 145.98957872 112.52892491 149.46088908 108.75 152.9375 C104.78480942 156.58388129 100.7878558 160.19296642 96.7734375 163.78515625 C94.84659246 165.52863084 92.93754193 167.28472716 91.0390625 169.05859375 C90.5028125 169.55746094 89.9665625 170.05632812 89.4140625 170.5703125 C88.37142275 171.54174758 87.33216896 172.51683374 86.296875 173.49609375 C84.25126976 175.39795376 82.41445092 177.01307369 79.8984375 178.25390625 C77.81901261 179.06056067 77.81901261 179.06056067 77.1875 182.125 C75.59341302 183.53971603 73.93643135 184.88424099 72.25 186.1875 C67.33117394 190.10599485 62.9177222 194.28683415 58.52734375 198.78125 C55.83815861 201.4749246 53.00767721 203.94147492 50.1171875 206.4140625 C48.05441479 208.24299863 46.1215928 210.16080458 44.1875 212.125 C41.70824673 214.64261696 39.19309816 217.02590722 36.5 219.3125 C30.39222585 224.55470137 24.83869544 230.40176382 19.1875 236.125 C17.1875 238.125 17.1875 238.125 14.1875 239.125 C14.1875 239.785 14.1875 240.445 14.1875 241.125 C12.96484375 242.32421875 12.96484375 242.32421875 11.125 243.8125 C6.06381753 248.09781493 1.45843812 252.79827362 -3.17993164 257.5300293 C-6.21453636 260.60545291 -9.28052426 263.5706319 -12.56689453 266.37719727 C-16.74288873 270.01091001 -20.6448511 273.86202238 -24.5234375 277.80859375 C-25.94648704 279.24426706 -27.36966777 280.67981034 -28.79296875 282.11523438 C-31.00693593 284.35418599 -33.21925244 286.5947262 -35.42919922 288.83764648 C-37.58130803 291.01977043 -39.73944199 293.19578648 -41.8984375 295.37109375 C-42.56297943 296.04909531 -43.22752136 296.72709686 -43.91220093 297.42564392 C-44.5268924 298.04371414 -45.14158386 298.66178436 -45.77490234 299.29858398 C-46.31480804 299.84594711 -46.85471375 300.39331024 -47.41098022 300.95726013 C-48.8125 302.125 -48.8125 302.125 -50.8125 302.125 C-50.8125 302.785 -50.8125 303.445 -50.8125 304.125 C-51.88673001 305.26853517 -52.97416121 306.40135494 -54.109375 307.484375 C-55.45678373 308.78233753 -56.77332796 310.11233356 -58.078125 311.453125 C-58.87734375 312.27296875 -59.6765625 313.0928125 -60.5 313.9375 C-61.26699219 314.72769531 -62.03398437 315.51789063 -62.82421875 316.33203125 C-64.8125 318.125 -64.8125 318.125 -66.8125 318.125 C-67.1425 319.115 -67.4725 320.105 -67.8125 321.125 C-68.4725 321.125 -69.1325 321.125 -69.8125 321.125 C-69.8125 321.785 -69.8125 322.445 -69.8125 323.125 C-71.17578125 324.4296875 -71.17578125 324.4296875 -73.125 326 C-77.73381375 329.9215345 -81.74322779 334.287817 -85.78125 338.78125 C-87.95138828 341.19444377 -90.1645479 343.55939343 -92.40625 345.90625 C-93.0041333 346.53587646 -93.6020166 347.16550293 -94.21801758 347.81420898 C-95.38938126 349.04559322 -96.56616707 350.27184639 -97.7487793 351.49243164 C-101.05232373 354.73643641 -101.05232373 354.73643641 -101.8125 359.125 C-102.4003125 359.20621094 -102.988125 359.28742188 -103.59375 359.37109375 C-106.52674592 360.36769271 -107.44096704 361.72906087 -109.3125 364.1875 C-109.99441406 365.08082031 -110.67632812 365.97414063 -111.37890625 366.89453125 C-111.75805176 367.40064941 -112.13719727 367.90676758 -112.52783203 368.42822266 C-113.98308217 370.35030332 -115.47319195 372.24276349 -116.96484375 374.13671875 C-118.06078748 375.54878758 -119.15584067 376.96154805 -120.25 378.375 C-121.04857422 379.38445679 -121.04857422 379.38445679 -121.86328125 380.41430664 C-124.81841882 384.28766134 -126.50824008 387.10081053 -126.8125 392.125 C-127.8025 392.125 -128.7925 392.125 -129.8125 392.125 C-140.38993233 412.58668342 -148.00786144 432.0545579 -140.8125 455.125 C-138.35283334 460.3354533 -135.69636319 465.25106931 -131.58984375 469.3359375 C-129.8125 471.125 -129.8125 471.125 -129.8125 473.125 C-129.255625 473.3725 -128.69875 473.62 -128.125 473.875 C-125.41379056 475.34051861 -123.21631744 477.20194605 -120.8125 479.125 C-119.49026302 479.81341237 -118.15394508 480.47480978 -116.8125 481.125 C-115.71421875 481.70894531 -114.6159375 482.29289062 -113.484375 482.89453125 C-104.17654502 487.78557315 -95.00818279 491.54149979 -84.8125 494.125 C-84.10270996 494.30514648 -83.39291992 494.48529297 -82.66162109 494.67089844 C-66.64109761 498.58144776 -50.20202746 499.75129299 -33.8125 501.125 C-33.4825 500.465 -33.1525 499.805 -32.8125 499.125 C-32.17570313 499.29386719 -31.53890625 499.46273438 -30.8828125 499.63671875 C20.8425528 507.86276285 83.9111981 478.93467456 124.6328125 449.52734375 C131.97930735 444.10712008 139.05344336 438.37681268 145.4140625 431.8125 C148.1875 429.125 148.1875 429.125 150.1875 429.125 C150.455625 428.50625 150.72375 427.8875 151 427.25 C152.1875 425.125 152.1875 425.125 155.1875 423.125 C155.86051831 421.79486145 156.52698474 420.46139134 157.1875 419.125 C158.6328125 417.7734375 158.6328125 417.7734375 160.3125 416.5 C165.01050632 412.60598239 168.53877705 407.98996394 172.1875 403.125 C172.9609375 402.09375 173.734375 401.0625 174.53125 400 C186.53605094 383.72079872 200.56808293 364.01978029 205.1875 344.125 C205.89594041 342.42869447 206.62817214 340.74225844 207.375 339.0625 C213.73154338 323.88763055 217.6021216 308.34492137 220.1875 292.125 C220.38472656 290.93003906 220.58195312 289.73507812 220.78515625 288.50390625 C221.49508808 282.49847023 221.33600902 276.42525241 221.31787109 270.38671875 C221.31246055 268.23430507 221.31786802 266.08209525 221.32421875 263.9296875 C221.32355882 262.55989537 221.32227943 261.19010337 221.3203125 259.8203125 C221.31918457 258.58297363 221.31805664 257.34563477 221.31689453 256.07080078 C221.3909246 253.19223849 221.3909246 253.19223849 220.1875 251.125 C220.07959472 249.66827868 220.00194813 248.20928989 219.9375 246.75 C219.46456858 240.91976351 218.1735722 235.40639516 216.75 229.75 C216.5324707 228.88197754 216.31494141 228.01395508 216.09082031 227.11962891 C215.22352832 223.75675311 214.36279275 220.54641084 213.02734375 217.3359375 C212.06662281 214.80678377 212.0341765 212.80816132 212.1875 210.125 C232.1063401 221.64269666 240.66518845 246.60988966 246.50390625 267.72265625 C259.14757216 317.29359027 247.86924265 374.57404416 224.23486328 419.13623047 C223.12271575 421.24801456 222.04249924 423.37433172 220.96484375 425.50390625 C217.14790607 432.97775089 213.18942201 439.97910773 208.0703125 446.6640625 C206.25786579 449.03302812 204.59714765 451.46005496 202.9375 453.9375 C198.59606583 460.19397788 193.53834176 465.84486634 188.52197266 471.56103516 C187.28184815 473.01442659 186.11204966 474.52702688 184.94921875 476.04296875 C184.07716797 477.07357422 184.07716797 477.07357422 183.1875 478.125 C182.5275 478.125 181.8675 478.125 181.1875 478.125 C181.1875 478.785 181.1875 479.445 181.1875 480.125 C176.88517442 484.89244186 176.88517442 484.89244186 173.1875 486.125 C172.8575 487.115 172.5275 488.105 172.1875 489.125 C171.5275 489.125 170.8675 489.125 170.1875 489.125 C169.8575 490.775 169.5275 492.425 169.1875 494.125 C168.1975 494.125 167.2075 494.125 166.1875 494.125 C164.37911522 495.72052373 164.37911522 495.72052373 162.5 497.875 C156.65303041 503.9212981 150.00670588 508.73412777 143.20996094 513.65820312 C141.32214331 515.02734947 139.4452178 516.41012912 137.5703125 517.796875 C129.41444104 523.78282517 120.96930199 529.1081571 112.1875 534.125 C111.07632812 534.76953125 109.96515625 535.4140625 108.8203125 536.078125 C88.76314269 547.26647823 67.23469575 554.93028287 45.1875 561.125 C44.33591309 561.37475586 43.48432617 561.62451172 42.60693359 561.88183594 C22.05434661 567.89214428 -0.42111038 570.63102213 -21.8125 571.125 C-22.61365234 571.14546387 -23.41480469 571.16592773 -24.24023438 571.18701172 C-48.62613151 571.73061775 -73.36636975 570.28634074 -97.265625 565.1953125 C-97.96196045 565.04763428 -98.6582959 564.89995605 -99.37573242 564.74780273 C-101.23488764 564.34300682 -103.08845067 563.9127574 -104.94140625 563.48046875 C-108.00768273 562.78370414 -108.00768273 562.78370414 -110.8125 565.125 C-111.1425 563.805 -111.4725 562.485 -111.8125 561.125 C-115.4425 560.795 -119.0725 560.465 -122.8125 560.125 C-122.8125 559.465 -122.8125 558.805 -122.8125 558.125 C-123.4209375 557.97804688 -124.029375 557.83109375 -124.65625 557.6796875 C-139.20575652 553.95672554 -152.60031721 548.1659551 -165.8125 541.125 C-166.8344043 540.58504395 -166.8344043 540.58504395 -167.87695312 540.03417969 C-180.11716855 533.52256932 -190.82682921 525.73171303 -201.4375 516.8125 C-202.04223145 516.30871826 -202.64696289 515.80493652 -203.27001953 515.28588867 C-206.15224136 512.81723887 -208.48940175 510.74204133 -209.8125 507.125 C-210.4725 507.125 -211.1325 507.125 -211.8125 507.125 C-211.8125 506.465 -211.8125 505.805 -211.8125 505.125 C-212.4725 505.125 -213.1325 505.125 -213.8125 505.125 C-215.43359375 503.04296875 -215.43359375 503.04296875 -217.25 500.3125 C-220.74123374 494.88689688 -220.74123374 494.88689688 -225.8125 491.125 C-226.01746094 489.84882812 -226.01746094 489.84882812 -226.2265625 488.546875 C-226.79648639 485.21851951 -227.84720177 482.52913722 -229.23803711 479.46704102 C-232.32803742 472.65855228 -234.54968958 466.07715553 -235.75 458.6875 C-235.86585449 457.97948242 -235.98170898 457.27146484 -236.10107422 456.54199219 C-237.45634885 447.09241119 -236.75091475 437.97741056 -235.4375 428.5625 C-235.31117188 427.56669922 -235.18484375 426.57089844 -235.0546875 425.54492188 C-234.92578125 424.60068359 -234.796875 423.65644531 -234.6640625 422.68359375 C-234.54885254 421.83079834 -234.43364258 420.97800293 -234.31494141 420.09936523 C-234.14913574 419.44782471 -233.98333008 418.79628418 -233.8125 418.125 C-233.1525 417.795 -232.4925 417.465 -231.8125 417.125 C-231.18598802 415.31614907 -231.18598802 415.31614907 -230.6875 413.0625 C-227.4711876 401.68295815 -221.05186962 391.08222408 -214.8125 381.125 C-214.07193359 379.85462891 -214.07193359 379.85462891 -213.31640625 378.55859375 C-212.01470071 376.45219751 -210.71094107 374.70865917 -209.0625 372.875 C-204.3616684 367.51769316 -200.07685437 361.83227791 -195.8125 356.125 C-196.1425 355.465 -196.4725 354.805 -196.8125 354.125 C-196.173125 354.00125 -195.53375 353.8775 -194.875 353.75 C-193.8540625 353.440625 -193.8540625 353.440625 -192.8125 353.125 C-192.4825 352.465 -192.1525 351.805 -191.8125 351.125 C-191.1525 351.125 -190.4925 351.125 -189.8125 351.125 C-189.59803223 350.58528564 -189.38356445 350.04557129 -189.16259766 349.48950195 C-187.32775493 346.2760387 -184.82390511 343.87073001 -182.2109375 341.29296875 C-181.65564362 340.73813309 -181.10034973 340.18329742 -180.52822876 339.61164856 C-179.35207558 338.43851211 -178.17349724 337.26780271 -176.99267578 336.09936523 C-175.20946546 334.33424266 -173.43421976 332.56141977 -171.66015625 330.78710938 C-155.5197453 314.69408177 -155.5197453 314.69408177 -150.8125 313.125 C-150.4825 312.135 -150.1525 311.145 -149.8125 310.125 C-147.921875 308.4765625 -147.921875 308.4765625 -145.5625 306.75 C-142.02328699 304.08577467 -138.8637604 301.35061814 -135.8125 298.125 C-134.51670353 296.75515802 -133.19257251 295.4098951 -131.8125 294.125 C-131.1525 294.125 -130.4925 294.125 -129.8125 294.125 C-129.8125 293.465 -129.8125 292.805 -129.8125 292.125 C-128.5546875 290.8203125 -128.5546875 290.8203125 -126.6875 289.25 C-125.96046875 288.63125 -125.2334375 288.0125 -124.484375 287.375 C-123.60265625 286.6325 -122.7209375 285.89 -121.8125 285.125 C-119.51741485 283.17065755 -117.22730233 281.21052752 -114.9375 279.25 C-114.02919434 278.47354126 -114.02919434 278.47354126 -113.10253906 277.68139648 C-108.68868685 273.90003865 -104.34816714 270.04550315 -100.04296875 266.140625 C-97.33453531 263.69307394 -94.58930541 261.29069573 -91.83203125 258.8984375 C-90.33683695 257.5854429 -88.85738349 256.25447513 -87.38671875 254.9140625 C-86.57847656 254.17929687 -85.77023437 253.44453125 -84.9375 252.6875 C-84.19757813 252.00816406 -83.45765625 251.32882812 -82.6953125 250.62890625 C-80.8125 249.125 -80.8125 249.125 -78.8125 249.125 C-78.8125 248.465 -78.8125 247.805 -78.8125 247.125 C-77.32393934 245.79235577 -75.76946355 244.53280521 -74.1875 243.3125 C-72.82625 242.25095703 -72.82625 242.25095703 -71.4375 241.16796875 C-70.57125 240.49378906 -69.705 239.81960938 -68.8125 239.125 C-66.79705583 237.47564237 -64.80459865 235.80255676 -62.8125 234.125 C-73.12038405 235.46959492 -83.25715568 237.30001198 -93.4375 239.375 C-94.99428382 239.68979402 -96.55108757 240.00448953 -98.10791016 240.3190918 C-114.89717212 243.72152897 -131.65293255 247.26994778 -148.35968018 251.05763245 C-152.49588637 251.99501808 -156.63326679 252.92717556 -160.77056885 253.85971069 C-163.83920097 254.55439572 -166.90566375 255.25814902 -169.97216797 255.9621582 C-171.86807123 256.39054778 -173.76406335 256.81854431 -175.66015625 257.24609375 C-176.54007736 257.45094391 -177.41999847 257.65579407 -178.32658386 257.86685181 C-179.13799332 258.0479953 -179.94940277 258.22913879 -180.78540039 258.41577148 C-181.49370499 258.57754379 -182.20200958 258.7393161 -182.93177795 258.9059906 C-184.8125 259.125 -184.8125 259.125 -187.8125 258.125 C-173.60603983 242.97144248 -154.4181992 232.13825419 -137.25 220.6875 C-136.61396851 220.26311646 -135.97793701 219.83873291 -135.32263184 219.40148926 C-127.54340065 214.21583757 -119.71556514 209.12069861 -111.8125 204.125 C-109.64256358 202.73417599 -107.47784172 201.33548479 -105.3125 199.9375 C-99.45174569 196.16507011 -93.5741705 192.41934871 -87.6875 188.6875 C-86.86958984 188.16712158 -86.05167969 187.64674316 -85.20898438 187.1105957 C-84.43619141 186.62163818 -83.66339844 186.13268066 -82.8671875 185.62890625 C-82.18124512 185.19392822 -81.49530273 184.7589502 -80.78857422 184.31079102 C-78.8125 183.125 -78.8125 183.125 -76.68408203 182.15600586 C-74.48369873 181.13136665 -74.48369873 181.13136665 -72.8125 178.125 C-71.8225 178.125 -70.8325 178.125 -69.8125 178.125 C-67.9429507 177.12363142 -66.11930202 176.03568777 -64.32421875 174.90625 C-63.23093262 174.22433594 -62.13764648 173.54242188 -61.01123047 172.83984375 C-60.43677185 172.47745605 -59.86231323 172.11506836 -59.27044678 171.74169922 C-56.33054086 169.88737031 -53.37772299 168.05383512 -50.42578125 166.21875 C-49.84969116 165.85990723 -49.27360107 165.50106445 -48.68005371 165.13134766 C-42.48897664 161.28386093 -36.19146766 157.6508294 -29.8125 154.125 C-29.8125 153.465 -29.8125 152.805 -29.8125 152.125 C-29.09263916 152.01559082 -28.37277832 151.90618164 -27.63110352 151.79345703 C-24.59342272 151.07304386 -22.41715264 149.98275021 -19.71484375 148.4296875 C-18.75344482 147.88143311 -17.7920459 147.33317871 -16.80151367 146.76831055 C-15.2910144 145.89299683 -15.2910144 145.89299683 -13.75 145 C-12.72173096 144.4119458 -11.69346191 143.8238916 -10.6340332 143.21801758 C-4.32865375 139.60532686 1.95229017 135.95148417 8.17578125 132.19921875 C10.1875 131.125 10.1875 131.125 12.1875 131.125 C12.1875 130.135 12.1875 129.145 12.1875 128.125 C13.07324707 128.01414062 13.95899414 127.90328125 14.87158203 127.7890625 C18.19062533 127.12437411 20.33418995 126.1884783 23.2421875 124.5 C24.1791748 123.96262207 25.11616211 123.42524414 26.08154297 122.87158203 C27.5571167 122.00702393 27.5571167 122.00702393 29.0625 121.125 C31.12476618 119.9344907 33.18726731 118.74438831 35.25 117.5546875 C36.25933594 116.96913086 37.26867187 116.38357422 38.30859375 115.78027344 C41.53578655 113.92474705 44.79358385 112.1323168 48.06079102 110.34863281 C57.86575438 105.22415571 57.86575438 105.22415571 66.1875 98.125 C66.56516291 96.46781576 66.90325379 94.80073655 67.1875 93.125 C60.36540742 89.44758133 53.63834231 86.73703011 46.1875 84.625 C45.15206055 84.32948242 44.11662109 84.03396484 43.04980469 83.72949219 C31.22571092 80.45310715 19.30018773 78.05037499 7.1875 76.125 C5.66866211 75.8772583 5.66866211 75.8772583 4.11914062 75.62451172 C-12.57304765 73.03277343 -29.27029507 72.81681206 -46.125 72.75 C-47.70063721 72.73808121 -47.70063721 72.73808121 -49.30810547 72.72592163 C-93.85262017 72.46713408 -139.60771953 82.62461759 -177.8125 106.125 C-178.4725 106.785 -179.1325 107.445 -179.8125 108.125 C-180.76125 108.640625 -181.71 109.15625 -182.6875 109.6875 C-194.36378947 116.22816008 -205.46466178 125.59416984 -214.8125 135.125 C-215.69035156 135.98544922 -215.69035156 135.98544922 -216.5859375 136.86328125 C-232.11469011 152.12690882 -245.22661541 169.87956596 -254.55859375 189.57421875 C-255.8125 192.125 -255.8125 192.125 -257.26171875 194.49609375 C-270.24775271 216.51020169 -274.70706368 242.88792348 -278.27856445 267.82543945 C-278.8125 270.125 -278.8125 270.125 -280.8125 272.125 C-283.16906631 265.98918947 -284.31631184 260.49503432 -284.5 253.9375 C-284.54688965 252.64718872 -284.54688965 252.64718872 -284.59472656 251.33081055 C-284.6845548 248.59573799 -284.74983658 245.86081699 -284.8125 243.125 C-284.83973145 242.24585938 -284.86696289 241.36671875 -284.89501953 240.4609375 C-286.41712067 188.53718532 -269.07980741 135.26682219 -235.8125 95.125 C-235.32604004 94.53702637 -234.83958008 93.94905273 -234.33837891 93.34326172 C-228.46330002 86.28533113 -222.44866376 79.48337086 -215.8125 73.125 C-214.884375 72.196875 -213.95625 71.26875 -213 70.3125 C-212.278125 69.590625 -211.55625 68.86875 -210.8125 68.125 C-210.255625 67.526875 -209.69875 66.92875 -209.125 66.3125 C-207.8125 65.125 -207.8125 65.125 -205.8125 65.125 C-205.8125 64.465 -205.8125 63.805 -205.8125 63.125 C-204.24654011 61.66323896 -202.60642831 60.28050186 -200.9375 58.9375 C-200.03257812 58.20144531 -199.12765625 57.46539062 -198.1953125 56.70703125 C-140.96768743 12.1768134 -70.6943127 0.13469013 0 0 Z " fill="#F9FAFA" transform="translate(531.8125,231.875)"/>
<path d="M0 0 C0.33 0.66 0.66 1.32 1 2 C0.26245117 3.86230469 0.26245117 3.86230469 -0.95703125 6.171875 C-1.40554443 7.0486792 -1.85405762 7.9254834 -2.31616211 8.82885742 C-2.80995361 9.79283447 -3.30374512 10.75681152 -3.8125 11.75 C-13.60146216 31.56058033 -20.86355093 53.08737779 -24 75 C-24.17442627 76.15419434 -24.34885254 77.30838867 -24.52856445 78.49755859 C-25.84547396 87.90936617 -26.28510078 97.11297626 -26.20581055 106.61132812 C-26.18734111 108.89464357 -26.18530344 111.17755434 -26.18554688 113.4609375 C-26.16682154 121.02904211 -25.93445218 128.47952885 -25 136 C-24.67 136 -24.34 136 -24 136 C-23.78234985 134.75633667 -23.78234985 134.75633667 -23.56030273 133.48754883 C-18.59035032 105.48969845 -18.59035032 105.48969845 -14.3125 92.8125 C-14.02753662 91.96598877 -13.74257324 91.11947754 -13.44897461 90.24731445 C-12.07733026 86.3856327 -10.77088997 83.10574072 -8 80 C-8.58926119 83.61182445 -9.65201119 86.88842184 -10.91699219 90.31591797 C-16.99997057 107.06531029 -19.9387339 125.10366276 -22.46386719 142.69384766 C-23 145 -23 145 -25 147 C-27.35656631 140.86418947 -28.50381184 135.37003432 -28.6875 128.8125 C-28.71875977 127.95229248 -28.75001953 127.09208496 -28.78222656 126.20581055 C-28.8720548 123.47073799 -28.93733658 120.73581699 -29 118 C-29.04084717 116.68128906 -29.04084717 116.68128906 -29.08251953 115.3359375 C-30.26138628 75.1210116 -19.97879842 36.36435289 -1 1 C-0.67 0.67 -0.34 0.34 0 0 Z " fill="#8B8C8E" transform="translate(276,357)"/>
<path d="M0 0 C5.36712706 1.54936204 9.9448521 4.021777 14.8125 6.6875 C44.78249242 22.7071848 77.35223166 31.22214256 111 35 C111.76248047 35.09571289 112.52496094 35.19142578 113.31054688 35.29003906 C123.49173094 36.41993181 133.77003785 36.24027502 144 36.25 C145.53269028 36.25300613 145.53269028 36.25300613 147.09634399 36.256073 C162.36276404 36.26340435 177.18322404 35.5766471 192.30224609 33.36376953 C196.85289851 32.75015215 201.42424811 32.37320159 206 32 C205.67 32.66 205.34 33.32 205 34 C202.29467773 34.57836914 202.29467773 34.57836914 198.68359375 35.03515625 C198.04031631 35.11855759 197.39703888 35.20195892 196.73426819 35.28788757 C194.63649342 35.55637967 192.53730068 35.81037638 190.4375 36.0625 C188.99608874 36.24051934 187.55468249 36.41857925 186.11328125 36.59667969 C176.75157826 37.73790294 167.43726846 38.78207111 158 39 C157.19884766 39.02046387 156.39769531 39.04092773 155.57226562 39.06201172 C131.18636849 39.60561775 106.44613025 38.16134074 82.546875 33.0703125 C81.85053955 32.92263428 81.1542041 32.77495605 80.43676758 32.62280273 C78.57761236 32.21800682 76.72404933 31.7877574 74.87109375 31.35546875 C71.80481727 30.65870414 71.80481727 30.65870414 69 33 C68.505 31.02 68.505 31.02 68 29 C64.37 28.67 60.74 28.34 57 28 C57 27.34 57 26.68 57 26 C56.3915625 25.85304688 55.783125 25.70609375 55.15625 25.5546875 C35.28709712 20.47052191 17.58133749 11.32903578 0 1 C0 0.67 0 0.34 0 0 Z " fill="#8D8E8F" transform="translate(352,764)"/>
<path d="M0 0 C10.28564227 4.24841746 15.85058228 20.57478829 19.97070312 30.28857422 C39.68640992 78.63658827 33.92786663 135.46663999 14.28515625 182.9765625 C13.86105469 183.97429687 13.43695312 184.97203125 13 186 C11.76721861 182.30165582 12.38891193 181.22164765 13.6953125 177.609375 C14.07937256 176.51850586 14.46343262 175.42763672 14.85913086 174.30371094 C15.27686768 173.13098633 15.69460449 171.95826172 16.125 170.75 C32.44447589 123.40739333 36.13853298 68.95654659 13.95800781 22.95800781 C10.35242842 15.58880629 6.54161382 9.03114062 1.3203125 2.6796875 C0 1 0 1 0 0 Z " fill="#888A8C" transform="translate(751,448)"/>
<path d="M0 0 C2.31 1.65 4.62 3.3 7 5 C4 5 4 5 2 4 C2.31453125 4.85078125 2.6290625 5.7015625 2.953125 6.578125 C8.60659126 22.58492706 12.20255047 39.4187666 12.1875 56.4375 C12.18737915 57.73216187 12.18737915 57.73216187 12.18725586 59.05297852 C12.09969687 69.11673233 11.10665728 79.1499538 9 89 C8.67 89 8.34 89 8 89 C8.0707373 88.10643799 8.14147461 87.21287598 8.21435547 86.29223633 C8.86723218 77.4267672 9.15821822 68.62223119 9.13037109 59.73364258 C9.12488403 57.64332217 9.13042627 55.55320563 9.13671875 53.46289062 C9.13605988 52.12499953 9.13478271 50.78710856 9.1328125 49.44921875 C9.13168457 48.25643311 9.13055664 47.06364746 9.12939453 45.8347168 C9.19451362 43.05072429 9.19451362 43.05072429 8 41 C7.89209472 39.54327868 7.81444813 38.08428989 7.75 36.625 C7.27706858 30.79476351 5.9860722 25.28139516 4.5625 19.625 C4.3449707 18.75697754 4.12744141 17.88895508 3.90332031 16.99462891 C2.83621105 12.85697291 1.61827612 8.95992912 0 5 C-0.125 2.1875 -0.125 2.1875 0 0 Z " fill="#8F9192" transform="translate(744,442)"/>
<path d="M0 0 C-2.50318101 2.50318101 -4.15245817 2.67250294 -7.59545898 3.4362793 C-8.76684921 3.6996257 -9.93823944 3.96297211 -11.14512634 4.23429871 C-12.41594559 4.51147232 -13.68676483 4.78864594 -14.99609375 5.07421875 C-16.30893634 5.36479761 -17.62168441 5.65580382 -18.93434143 5.94721985 C-21.68638163 6.55636047 -24.43954753 7.16005108 -27.19360352 7.76000977 C-30.72456263 8.52970556 -34.25229703 9.31316918 -37.77929592 10.10078716 C-40.48977922 10.7044084 -43.20187164 11.3005201 -45.91450691 11.8943882 C-47.84927378 12.31942525 -49.78261236 12.75094693 -51.71592712 13.18254089 C-52.89046951 13.43643082 -54.0650119 13.69032074 -55.27514648 13.9519043 C-56.3105809 14.1790361 -57.34601532 14.40616791 -58.41282654 14.6401825 C-61 15 -61 15 -64 14 C-59.375 9.125 -59.375 9.125 -56 8 C-56 8.66 -56 9.32 -56 10 C-56.99 10.495 -56.99 10.495 -58 11 C-49.50897416 9.50703643 -41.06588248 7.81513093 -32.625 6.0625 C-31.40039062 5.81048828 -30.17578125 5.55847656 -28.9140625 5.29882812 C-21.8492228 3.83571779 -14.82295252 2.27681496 -7.81787109 0.54858398 C-5.12857826 0.02503165 -2.73062703 -0.10478351 0 0 Z " fill="#989A9B" transform="translate(408,476)"/>
<path d="M0 0 C3.8063457 0.67170806 7.35206816 1.72746564 11 3 C11 3.66 11 4.32 11 5 C14.62197194 6.49140021 18.27566618 7.7874262 22 9 C22 9.66 22 10.32 22 11 C25.92438786 12.66489182 29.89100419 13.87204037 34 15 C32.52307692 20.66153846 32.52307692 20.66153846 29.875 22.375 C29.25625 22.58125 28.6375 22.7875 28 23 C28.99 21.35 29.98 19.7 31 18 C20.70614998 12.25808815 10.39945257 6.54882451 0 1 C0 0.67 0 0.34 0 0 Z " fill="#979899" transform="translate(709,274)"/>
<path d="M0 0 C2.42401478 3.07382597 4.34004987 6.27368727 6.25 9.6875 C9.05135659 14.56747512 12.11559364 18.93871236 15.71484375 23.2578125 C17 25 17 25 17 27 C16.34 27 15.68 27 15 27 C13.37890625 24.91796875 13.37890625 24.91796875 11.5625 22.1875 C8.07126626 16.76189688 8.07126626 16.76189688 3 13 C2.6451046 11.00371336 2.31421071 9.00309329 2 7 C1.34870203 5.65909241 0.68486725 4.32407669 0 3 C0 2.01 0 1.02 0 0 Z " fill="#8E9091" transform="translate(303,710)"/>
<path d="M0 0 C8.83037389 3.59755973 14.05677054 16.75397608 18 25 C18 25.66 18 26.32 18 27 C17.34 27 16.68 27 16 27 C15.43152344 25.87722656 14.86304688 24.75445312 14.27734375 23.59765625 C10.42547244 16.09651152 6.70076154 8.93740589 1.21484375 2.46875 C0 1 0 1 0 0 Z " fill="#949698" transform="translate(751,448)"/>
<path d="M0 0 C0.66 0.33 1.32 0.66 2 1 C-0.35186328 3.21079684 -2.70691707 5.41816736 -5.0625 7.625 C-5.71927734 8.24246094 -6.37605469 8.85992187 -7.05273438 9.49609375 C-11.2759158 13.44882513 -15.58220045 17.26583913 -20 21 C-20.66 20.67 -21.32 20.34 -22 20 C-11.35885818 9.11010421 -11.35885818 9.11010421 -7 6 C-6.34 6 -5.68 6 -5 6 C-5 5.34 -5 4.68 -5 4 C-3.37373596 2.61767557 -1.7074998 1.28062485 0 0 Z " fill="#959798" transform="translate(458,475)"/>
<path d="M0 0 C0.66 0.33 1.32 0.66 2 1 C-4.93 7.93 -11.86 14.86 -19 22 C-19 19 -19 19 -16.76953125 16.4765625 C-15.79134265 15.51833693 -14.80529119 14.56808791 -13.8125 13.625 C-13.08836914 12.92117188 -13.08836914 12.92117188 -12.34960938 12.203125 C-11.38133004 11.26213945 -10.41038467 10.32388934 -9.43676758 9.38842773 C-7.26262477 7.28743366 -5.132256 5.1433615 -3 3 C-2 2 -1 1 0 0 Z " fill="#919294" transform="translate(324,297)"/>
<path d="M0 0 C0 0.66 0 1.32 0 2 C-1.36328125 3.3046875 -1.36328125 3.3046875 -3.3125 4.875 C-9.07463934 9.7474733 -13.98309268 15.38364603 -19 21 C-19 16.60104877 -16.20378899 14.63492336 -13.3125 11.625 C-12.51682617 10.77808594 -12.51682617 10.77808594 -11.70507812 9.9140625 C-10.14869563 8.26410609 -8.5761845 6.63102143 -7 5 C-6.52481934 4.4956543 -6.04963867 3.99130859 -5.56005859 3.47167969 C-2.22905655 0 -2.22905655 0 0 0 Z " fill="#7E7F7F" transform="translate(321,362)"/>
<path d="M0 0 C0 3 0 3 -1.56054688 4.80932617 C-2.27275391 5.46392822 -2.98496094 6.11853027 -3.71875 6.79296875 C-4.48574219 7.50517578 -5.25273438 8.21738281 -6.04296875 8.95117188 C-6.85378906 9.68916016 -7.66460938 10.42714844 -8.5 11.1875 C-9.31082031 11.93708984 -10.12164063 12.68667969 -10.95703125 13.45898438 C-12.96485532 15.31326896 -14.97928073 17.15979242 -17 19 C-17.66 18.67 -18.32 18.34 -19 18 C-17.38113585 16.32737283 -15.7547271 14.66204463 -14.125 13 C-12.76761719 11.6078125 -12.76761719 11.6078125 -11.3828125 10.1875 C-9 8 -9 8 -7 8 C-6.6596875 7.13375 -6.6596875 7.13375 -6.3125 6.25 C-4.66961977 3.4336339 -2.60466773 1.91922886 0 0 Z " fill="#9C9EA0" transform="translate(689,653)"/>
<path d="M0 0 C0.66 0 1.32 0 2 0 C0.42219077 3.71045247 -1.90703248 6.29906384 -4.625 9.25 C-5.44226563 10.14203125 -6.25953125 11.0340625 -7.1015625 11.953125 C-7.72804688 12.62859375 -8.35453125 13.3040625 -9 14 C-9 9.61031544 -6.87194899 8.23094261 -4 5 C-4.33 4.34 -4.66 3.68 -5 3 C-4.360625 2.87625 -3.72125 2.7525 -3.0625 2.625 C-2.0415625 2.315625 -2.0415625 2.315625 -1 2 C-0.67 1.34 -0.34 0.68 0 0 Z " fill="#9C9EA0" transform="translate(340,583)"/>
<path d="M0 0 C1.91789713 0.28346278 3.83429183 0.5771028 5.75 0.875 C7.35101563 1.11863281 7.35101563 1.11863281 8.984375 1.3671875 C11.67708871 1.93223882 13.63572439 2.63422914 16 4 C15.24074219 3.90460937 14.48148437 3.80921875 13.69921875 3.7109375 C12.20841797 3.54464844 12.20841797 3.54464844 10.6875 3.375 C9.20830078 3.20097656 9.20830078 3.20097656 7.69921875 3.0234375 C4.77342584 2.74523005 4.77342584 2.74523005 2 5 C1.34 3.35 0.68 1.7 0 0 Z " fill="#9D9E9E" transform="translate(419,792)"/>
<path d="M0 0 C0.33 0 0.66 0 1 0 C1 1.65 1 3.3 1 5 C1.99 4.67 2.98 4.34 4 4 C3.34 6.31 2.68 8.62 2 11 C0.00902154 8.01353231 -0.94124926 5.40312738 -2 2 C-1.34 1.34 -0.68 0.68 0 0 Z " fill="#BCBEBE" transform="translate(250,493)"/>
<path d="M0 0 C-1.47692308 5.66153846 -1.47692308 5.66153846 -4.125 7.375 C-4.74375 7.58125 -5.3625 7.7875 -6 8 C-5.01 6.35 -4.02 4.7 -3 3 C-3.99 2.01 -4.98 1.02 -6 0 C-3.50907189 -1.24546405 -2.58919267 -0.7767578 0 0 Z " fill="#9D9E9F" transform="translate(743,289)"/>
<path d="M0 0 C2.31 1.65 4.62 3.3 7 5 C4 5 4 5 2 4 C2.33 4.99 2.66 5.98 3 7 C2.01 7.495 2.01 7.495 1 8 C0.67 5.36 0.34 2.72 0 0 Z " fill="#B6B7B8" transform="translate(744,442)"/>
<path d="M0 0 C0.66 0 1.32 0 2 0 C0.4169423 4.2742558 -2.50568404 6.26531794 -6 9 C-4.4722133 5.56247993 -2.49818944 2.81046312 0 0 Z " fill="#939495" transform="translate(307,374)"/>
<path d="M0 0 C0.66 0.33 1.32 0.66 2 1 C0.88121617 2.17262904 -0.24523051 3.33795138 -1.375 4.5 C-2.00148438 5.1496875 -2.62796875 5.799375 -3.2734375 6.46875 C-5 8 -5 8 -7 8 C-5.61918777 3.8575633 -3.40174442 2.67796901 0 0 Z " fill="#9C9FA1" transform="translate(324,297)"/>
<path d="M0 0 C3.35620271 1.38877354 5.07298728 2.91677965 7 6 C7 6.66 7 7.32 7 8 C6.34 8 5.68 8 5 8 C3.7109375 6.50390625 3.7109375 6.50390625 2.375 4.5625 C1.92898438 3.92441406 1.48296875 3.28632812 1.0234375 2.62890625 C0 1 0 1 0 0 Z " fill="#9EA0A1" transform="translate(313,729)"/>
<path d="M0 0 C0.99 0 1.98 0 3 0 C3 0.66 3 1.32 3 2 C4.65 2.33 6.3 2.66 8 3 C5.39417629 3.93065133 4.35801776 4.14917407 1.75 3.0625 C1.1725 2.711875 0.595 2.36125 0 2 C0 1.34 0 0.68 0 0 Z " fill="#E8E8E7" transform="translate(656,249)"/>
<path d="M0 0 C2.97 0.495 2.97 0.495 6 1 C6 1.33 6 1.66 6 2 C4.02 2 2.04 2 0 2 C0 1.34 0 0.68 0 0 Z " fill="#F5F5F5" transform="translate(576,317)"/>
<path d="M0 0 C1.32 0.33 2.64 0.66 4 1 C4 1.66 4 2.32 4 3 C2.68 2.67 1.36 2.34 0 2 C0 1.34 0 0.68 0 0 Z " fill="#E8E7E7" transform="translate(402,789)"/>
<path d="M0 0 C0.66 0.99 1.32 1.98 2 3 C1.01 3.33 0.02 3.66 -1 4 C-0.67 2.68 -0.34 1.36 0 0 Z " fill="#E7E7E6" transform="translate(773,612)"/>
<path d="M0 0 C0.66 1.32 1.32 2.64 2 4 C1.34 4 0.68 4 0 4 C0 2.68 0 1.36 0 0 Z " fill="#E4E5E3" transform="translate(299,706)"/>
<path d="M0 0 C0.99 0.33 1.98 0.66 3 1 C1.68 1.33 0.36 1.66 -1 2 C-0.67 1.34 -0.34 0.68 0 0 Z " fill="#EAEAEA" transform="translate(428,240)"/>
<path d="M0 0 C1.32 0 2.64 0 4 0 C3.67 0.66 3.34 1.32 3 2 C2.01 1.34 1.02 0.68 0 0 Z " fill="#EAEBEA" transform="translate(434,798)"/>
<path d="M0 0 C0.66 0 1.32 0 2 0 C2 0.66 2 1.32 2 2 C1.01 1.67 0.02 1.34 -1 1 C-0.67 0.67 -0.34 0.34 0 0 Z " fill="#E8E8E6" transform="translate(644,766)"/>
<path d="M0 0 C1.65 0 3.3 0 5 0 C5 0.33 5 0.66 5 1 C3.35 1 1.7 1 0 1 C0 0.67 0 0.34 0 0 Z " fill="#F2F2F2" transform="translate(552,725)"/>
<path d="M0 0 C0.33 0 0.66 0 1 0 C1 1.65 1 3.3 1 5 C0.67 5 0.34 5 0 5 C0 3.35 0 1.7 0 0 Z " fill="#EDEEEE" transform="translate(752,507)"/>
<path d="M0 0 C0.66 0 1.32 0 2 0 C2 0.99 2 1.98 2 3 C1.34 2.67 0.68 2.34 0 2 C0 1.34 0 0.68 0 0 Z " fill="#E5E5E6" transform="translate(746,460)"/>
<path d="M0 0 C0.99 0.33 1.98 0.66 3 1 C2.67 1.66 2.34 2.32 2 3 C1.34 2.67 0.68 2.34 0 2 C0 1.34 0 0.68 0 0 Z " fill="#F4F3F3" transform="translate(440,418)"/>
<path d="M0 0 C1.65 0 3.3 0 5 0 C5 0.33 5 0.66 5 1 C3.35 1 1.7 1 0 1 C0 0.67 0 0.34 0 0 Z " fill="#F6F6F5" transform="translate(568,315)"/>
<path d="M0 0 C1.32 0.33 2.64 0.66 4 1 C3.01 1.33 2.02 1.66 1 2 C0.67 1.34 0.34 0.68 0 0 Z " fill="#F2F4F3" transform="translate(547,310)"/>
<path d="M0 0 C1.32 0 2.64 0 4 0 C3.67 0.66 3.34 1.32 3 2 C2.01 1.34 1.02 0.68 0 0 Z " fill="#F3F4F4" transform="translate(433,309)"/>
<path d="M0 0 C1.98 0.99 1.98 0.99 4 2 C2.68 2 1.36 2 0 2 C0 1.34 0 0.68 0 0 Z " fill="#E7E7E6" transform="translate(594,235)"/>
<path d="M0 0 C0.99 1.485 0.99 1.485 2 3 C1.34 3 0.68 3 0 3 C0 2.01 0 1.02 0 0 Z " fill="#E8E8E7" transform="translate(397,788)"/>
<path d="M0 0 C0.99 0.33 1.98 0.66 3 1 C2.01 1 1.02 1 0 1 C0 0.67 0 0.34 0 0 Z " fill="#E8E9EA" transform="translate(320,741)"/>
<path d="M0 0 C0.66 0.66 1.32 1.32 2 2 C1.01 1.67 0.02 1.34 -1 1 C-0.67 0.67 -0.34 0.34 0 0 Z " fill="#E5E6E5" transform="translate(691,733)"/>
<path d="M0 0 C0.33 0.99 0.66 1.98 1 3 C0.34 2.67 -0.32 2.34 -1 2 C-0.67 1.34 -0.34 0.68 0 0 Z " fill="#E5E4E5" transform="translate(767,628)"/>
<path d="M0 0 C1 4 1 4 1 4 Z " fill="#EAEAE9" transform="translate(780,580)"/>
<path d="M0 0 C0 3 0 3 0 3 Z " fill="#F4F5F5" transform="translate(385,537)"/>
<path d="M0 0 C4 1 4 1 4 1 Z " fill="#EEEDED" transform="translate(370,486)"/>
<path d="M0 0 C0.66 0.66 1.32 1.32 2 2 C1.01 1.67 0.02 1.34 -1 1 C-0.67 0.67 -0.34 0.34 0 0 Z " fill="#F5F4F5" transform="translate(452,469)"/>
<path d="M0 0 C0 3 0 3 0 3 Z " fill="#E8E8E9" transform="translate(749,468)"/>
<path d="M0 0 C0.66 0 1.32 0 2 0 C2 0.66 2 1.32 2 2 C1.34 2 0.68 2 0 2 C0 1.34 0 0.68 0 0 Z " fill="#EBEDEB" transform="translate(612,414)"/>
<path d="M0 0 C0 3 0 3 0 3 Z " fill="#F5F5F4" transform="translate(597,325)"/>
<path d="M0 0 C1.485 0.99 1.485 0.99 3 2 C2.01 2 1.02 2 0 2 C0 1.34 0 0.68 0 0 Z " fill="#F7F7F7" transform="translate(592,322)"/>
<path d="M0 0 C0.99 1.485 0.99 1.485 2 3 C1.34 3 0.68 3 0 3 C0 2.01 0 1.02 0 0 Z " fill="#E8E9E8" transform="translate(379,256)"/>
<path d="M0 0 C0.99 0.33 1.98 0.66 3 1 C2.01 1.33 1.02 1.66 0 2 C0 1.34 0 0.68 0 0 Z " fill="#ECEBEB" transform="translate(384,256)"/>
<path d="M0 0 C0.99 0.33 1.98 0.66 3 1 C2.01 1 1.02 1 0 1 C0 0.67 0 0.34 0 0 Z " fill="#EAEAE9" transform="translate(635,244)"/>
<path d="M0 0 C4 1 4 1 4 1 Z " fill="#EAEBEA" transform="translate(423,242)"/>
<path d="M0 0 C4 1 4 1 4 1 Z " fill="#E9EAEA" transform="translate(456,235)"/>
<path d="M0 0 C0.66 0 1.32 0 2 0 C1.67 0.66 1.34 1.32 1 2 C0.67 1.34 0.34 0.68 0 0 Z " fill="#EBEAE9" transform="translate(425,796)"/>
<path d="M0 0 C0.99 0.495 0.99 0.495 2 1 C1.01 1.495 1.01 1.495 0 2 C0 1.34 0 0.68 0 0 Z " fill="#E5E6E6" transform="translate(593,789)"/>
<path d="M0 0 C3 1 3 1 3 1 Z " fill="#E8E8E8" transform="translate(595,788)"/>
<path d="M0 0 C3 1 3 1 3 1 Z " fill="#E9E9E8" transform="translate(394,787)"/>
<path d="M0 0 C3 1 3 1 3 1 Z " fill="#E6E5E4" transform="translate(612,782)"/>
<path d="" fill="#E3E5E3" transform="translate(0,0)"/>
<path d="M0 0 C0.33 0.66 0.66 1.32 1 2 C0.34 1.67 -0.32 1.34 -1 1 C-0.67 0.67 -0.34 0.34 0 0 Z " fill="#F1F0F1" transform="translate(482,729)"/>
<path d="M0 0 C0.99 0.495 0.99 0.495 2 1 C1.01 1.495 1.01 1.495 0 2 C0 1.34 0 0.68 0 0 Z " fill="#EBEBE9" transform="translate(716,708)"/>
<path d="" fill="#F0F0F0" transform="translate(0,0)"/>
<path d="M0 0 C0.99 0.495 0.99 0.495 2 1 C1.01 1.495 1.01 1.495 0 2 C0 1.34 0 0.68 0 0 Z " fill="#F1F0F0" transform="translate(672,664)"/>
<path d="M0 0 C0.33 0.66 0.66 1.32 1 2 C0.34 1.67 -0.32 1.34 -1 1 C-0.67 0.67 -0.34 0.34 0 0 Z " fill="#EBEBEB" transform="translate(297,650)"/>
<path d="" fill="#EFF0F0" transform="translate(0,0)"/>
<path d="M0 0 C0.99 0.495 0.99 0.495 2 1 C1.01 1.495 1.01 1.495 0 2 C0 1.34 0 0.68 0 0 Z " fill="#F7F7F7" transform="translate(418,507)"/>
<path d="M0 0 C3 1 3 1 3 1 Z " fill="#F3F3F2" transform="translate(422,475)"/>
<path d="" fill="#E7E8E9" transform="translate(0,0)"/>
<path d="M0 0 C0.33 0.66 0.66 1.32 1 2 C0.34 1.67 -0.32 1.34 -1 1 C-0.67 0.67 -0.34 0.34 0 0 Z " fill="#F0F0F0" transform="translate(311,374)"/>
<path d="M0 0 C0.66 0.66 1.32 1.32 2 2 C1.34 2 0.68 2 0 2 C0 1.34 0 0.68 0 0 Z " fill="#E9EAE9" transform="translate(692,342)"/>
<path d="M0 0 C0.99 0.495 0.99 0.495 2 1 C1.01 1.495 1.01 1.495 0 2 C0 1.34 0 0.68 0 0 Z " fill="#EDEDEC" transform="translate(312,306)"/>
<path d="M0 0 C3 1 3 1 3 1 Z " fill="#DFE0E0" transform="translate(733,302)"/>
<path d="M0 0 C3 1 3 1 3 1 Z " fill="#E2E3E2" transform="translate(693,264)"/>
<path d="M0 0 C3 1 3 1 3 1 Z " fill="#E6E8E7" transform="translate(625,242)"/>
<path d="M0 0 C3 1 3 1 3 1 Z " fill="#E6E6E6" transform="translate(601,237)"/>
<path d="M0 0 C2 1 2 1 2 1 Z " fill="#E2E5E3" transform="translate(493,804)"/>
<path d="M0 0 C2 1 2 1 2 1 Z " fill="#EDEBEC" transform="translate(561,797)"/>
<path d="" fill="#E8E7E8" transform="translate(0,0)"/>
<path d="M0 0 C2 1 2 1 2 1 Z " fill="#E5E6E4" transform="translate(399,791)"/>
<path d="M0 0 C2 1 2 1 2 1 Z " fill="#E9E9E8" transform="translate(399,789)"/>
<path d="M0 0 C2 1 2 1 2 1 Z " fill="#E6E7E7" transform="translate(598,787)"/>
<path d="" fill="#E7E7E7" transform="translate(0,0)"/>
<path d="M0 0 C2 1 2 1 2 1 Z " fill="#E9EAE9" transform="translate(608,783)"/>
<path d="M0 0 C2 1 2 1 2 1 Z " fill="#E5E5E4" transform="translate(375,779)"/>
<path d="" fill="#E8E6E6" transform="translate(0,0)"/>
<path d="" fill="#ECEBEC" transform="translate(0,0)"/>
<path d="M0 0 C2 1 2 1 2 1 Z " fill="#E5E6E6" transform="translate(312,732)"/>
<path d="M0 0 C2 1 2 1 2 1 Z " fill="#EFEFEE" transform="translate(514,730)"/>
<path d="" fill="#E5E6E6" transform="translate(0,0)"/>
<path d="M0 0 C2 1 2 1 2 1 Z " fill="#F1F2F2" transform="translate(444,724)"/>
<path d="M0 0 C2 1 2 1 2 1 Z " fill="#F0F0F1" transform="translate(441,723)"/>
<path d="M0 0 C2 1 2 1 2 1 Z " fill="#EDEFEF" transform="translate(573,720)"/>
<path d="" fill="#F2F3F1" transform="translate(0,0)"/>
<path d="" fill="#F0F0F0" transform="translate(0,0)"/>
<path d="" fill="#EEEEEE" transform="translate(0,0)"/>
<path d="M0 0 C2 1 2 1 2 1 Z " fill="#F3F3F2" transform="translate(627,698)"/>
<path d="M0 0 C2 1 2 1 2 1 Z " fill="#F3F3F1" transform="translate(630,696)"/>
<path d="" fill="#F0F0EF" transform="translate(0,0)"/>
<path d="" fill="#EDEEED" transform="translate(0,0)"/>
<path d="" fill="#E9E9E7" transform="translate(0,0)"/>
<path d="" fill="#F1F2F1" transform="translate(0,0)"/>
<path d="" fill="#E8E8E6" transform="translate(0,0)"/>
<path d="M0 0 C2 1 2 1 2 1 Z " fill="#EAEAE9" transform="translate(306,626)"/>
<path d="" fill="#F1F2F1" transform="translate(0,0)"/>
<path d="M0 0 C2 1 2 1 2 1 Z " fill="#E9EAEA" transform="translate(317,608)"/>
<path d="M0 0 C2 1 2 1 2 1 Z " fill="#F4F4F3" transform="translate(720,607)"/>
<path d="" fill="#F1F1F0" transform="translate(0,0)"/>
<path d="" fill="#F2F2F2" transform="translate(0,0)"/>
<path d="" fill="#F5F5F5" transform="translate(0,0)"/>
<path d="" fill="#F0F1F0" transform="translate(0,0)"/>
<path d="" fill="#F4F6F5" transform="translate(0,0)"/>
<path d="" fill="#EFEFEC" transform="translate(0,0)"/>
<path d="" fill="#F2F3F4" transform="translate(0,0)"/>
<path d="M0 0 C2 1 2 1 2 1 Z " fill="#F7F8F7" transform="translate(411,514)"/>
<path d="" fill="#F5F4F5" transform="translate(0,0)"/>
<path d="" fill="#E6E6E5" transform="translate(0,0)"/>
<path d="" fill="#E5E6E6" transform="translate(0,0)"/>
<path d="" fill="#EFF1F0" transform="translate(0,0)"/>
<path d="M0 0 C2 1 2 1 2 1 Z " fill="#F2F3F2" transform="translate(390,482)"/>
<path d="" fill="#E4E6E5" transform="translate(0,0)"/>
<path d="M0 0 C2 1 2 1 2 1 Z " fill="#F3F4F3" transform="translate(420,476)"/>
<path d="M0 0 C2 1 2 1 2 1 Z " fill="#F4F4F4" transform="translate(417,476)"/>
<path d="M0 0 C2 1 2 1 2 1 Z " fill="#F4F4F3" transform="translate(430,474)"/>
<path d="" fill="#F6F4F6" transform="translate(0,0)"/>
<path d="M0 0 C2 1 2 1 2 1 Z " fill="#EDECE9" transform="translate(557,462)"/>
<path d="" fill="#E1E3E3" transform="translate(0,0)"/>
<path d="" fill="#EDEDEE" transform="translate(0,0)"/>
<path d="" fill="#F1F1F1" transform="translate(0,0)"/>
<path d="M0 0 C2 1 2 1 2 1 Z " fill="#D3D4D5" transform="translate(745,441)"/>
<path d="" fill="#EBEDEE" transform="translate(0,0)"/>
<path d="" fill="#F5F5F5" transform="translate(0,0)"/>
<path d="M0 0 C2 1 2 1 2 1 Z " fill="#F4F3F4" transform="translate(504,381)"/>
<path d="M0 0 C2 1 2 1 2 1 Z " fill="#F3F2F1" transform="translate(652,374)"/>
<path d="" fill="#F5F6F5" transform="translate(0,0)"/>
<path d="M0 0 C2 1 2 1 2 1 Z " fill="#F5F7F3" transform="translate(555,354)"/>
<path d="M0 0 C2 1 2 1 2 1 Z " fill="#F5F6F4" transform="translate(558,352)"/>
<path d="M0 0 C2 1 2 1 2 1 Z " fill="#F2F2F2" transform="translate(338,349)"/>
<path d="M0 0 C2 1 2 1 2 1 Z " fill="#F4F6F5" transform="translate(569,346)"/>
<path d="M0 0 C2 1 2 1 2 1 Z " fill="#F2F3F3" transform="translate(348,342)"/>
<path d="M0 0 C2 1 2 1 2 1 Z " fill="#F0F0F0" transform="translate(360,335)"/>
<path d="M0 0 C2 1 2 1 2 1 Z " fill="#F7F6F6" transform="translate(592,325)"/>
<path d="M0 0 C2 1 2 1 2 1 Z " fill="#F5F4F4" transform="translate(574,319)"/>
<path d="M0 0 C2 1 2 1 2 1 Z " fill="#F1F2F0" transform="translate(397,318)"/>
<path d="M0 0 C2 1 2 1 2 1 Z " fill="#F3F3F3" transform="translate(401,317)"/>
<path d="M0 0 C2 1 2 1 2 1 Z " fill="#E7E8E7" transform="translate(304,312)"/>
<path d="M0 0 C2 1 2 1 2 1 Z " fill="#F5F6F5" transform="translate(446,307)"/>
<path d="M0 0 C2 1 2 1 2 1 Z " fill="#EDECED" transform="translate(314,304)"/>
<path d="" fill="#EBEBE9" transform="translate(0,0)"/>
<path d="M0 0 C2 1 2 1 2 1 Z " fill="#E9E9E7" transform="translate(699,267)"/>
<path d="M0 0 C2 1 2 1 2 1 Z " fill="#E6E5E6" transform="translate(697,266)"/>
<path d="M0 0 C2 1 2 1 2 1 Z " fill="#E4E5E5" transform="translate(368,264)"/>
<path d="M0 0 C2 1 2 1 2 1 Z " fill="#E7E6E6" transform="translate(683,260)"/>
<path d="M0 0 C2 1 2 1 2 1 Z " fill="#E6E6E5" transform="translate(681,259)"/>
<path d="M0 0 C2 1 2 1 2 1 Z " fill="#EDEDED" transform="translate(392,253)"/>
<path d="" fill="#E8E9E7" transform="translate(0,0)"/>
<path d="" fill="#E8E8E8" transform="translate(0,0)"/>
<path d="" fill="#E2E3E2" transform="translate(0,0)"/>
<path d="M0 0 C2 1 2 1 2 1 Z " fill="#ECECEB" transform="translate(403,249)"/>
<path d="M0 0 C2 1 2 1 2 1 Z " fill="#E6E8E7" transform="translate(405,248)"/>
<path d="" fill="#EBEAEA" transform="translate(0,0)"/>
<path d="" fill="#E6E6E7" transform="translate(0,0)"/>
<path d="M0 0 C2 1 2 1 2 1 Z " fill="#EEEFED" transform="translate(433,240)"/>
<path d="" fill="#E7E8E7" transform="translate(0,0)"/>
<path d="" fill="#E9EAE9" transform="translate(0,0)"/>
<path d="M0 0 C2 1 2 1 2 1 Z " fill="#EBECEB" transform="translate(561,232)"/>
<path d="" fill="#3E3E3D" transform="translate(0,0)"/>
<path d="" fill="#666767" transform="translate(0,0)"/>
<path d="" fill="#E7E7E6" transform="translate(0,0)"/>
<path d="" fill="#EEEEEE" transform="translate(0,0)"/>
<path d="" fill="#EBEDEB" transform="translate(0,0)"/>
<path d="" fill="#E8E9E8" transform="translate(0,0)"/>
<path d="" fill="#ECEDEC" transform="translate(0,0)"/>
<path d="" fill="#E8E6E5" transform="translate(0,0)"/>
<path d="" fill="#E7E7E7" transform="translate(0,0)"/>
<path d="" fill="#E6E6E7" transform="translate(0,0)"/>
<path d="" fill="#E7E7E7" transform="translate(0,0)"/>
<path d="" fill="#E9E9E8" transform="translate(0,0)"/>
<path d="" fill="#ECEAE8" transform="translate(0,0)"/>
<path d="" fill="#E8EAE9" transform="translate(0,0)"/>
<path d="" fill="#E5E6E5" transform="translate(0,0)"/>
<path d="" fill="#EBECEC" transform="translate(0,0)"/>
<path d="" fill="#E3E2E2" transform="translate(0,0)"/>
<path d="" fill="#E7E7E4" transform="translate(0,0)"/>
<path d="" fill="#E4E4E3" transform="translate(0,0)"/>
<path d="" fill="#E7E7E4" transform="translate(0,0)"/>
<path d="" fill="#E8E7E7" transform="translate(0,0)"/>
<path d="" fill="#E7E7E6" transform="translate(0,0)"/>
<path d="" fill="#E0E2DF" transform="translate(0,0)"/>
<path d="" fill="#E7E7E7" transform="translate(0,0)"/>
<path d="" fill="#E2E4E2" transform="translate(0,0)"/>
<path d="" fill="#E7E8E7" transform="translate(0,0)"/>
<path d="" fill="#E5E4E5" transform="translate(0,0)"/>
<path d="" fill="#E4E3E4" transform="translate(0,0)"/>
<path d="" fill="#E2E3E3" transform="translate(0,0)"/>
<path d="" fill="#E5E5E5" transform="translate(0,0)"/>
<path d="" fill="#E6E6E8" transform="translate(0,0)"/>
<path d="" fill="#EAEBEA" transform="translate(0,0)"/>
<path d="" fill="#E7E5E4" transform="translate(0,0)"/>
<path d="" fill="#E6E8E8" transform="translate(0,0)"/>
<path d="" fill="#EBEDEB" transform="translate(0,0)"/>
<path d="" fill="#ECEDEA" transform="translate(0,0)"/>
<path d="" fill="#E2E4E3" transform="translate(0,0)"/>
<path d="" fill="#E7EBE9" transform="translate(0,0)"/>
<path d="" fill="#E8E9E8" transform="translate(0,0)"/>
<path d="" fill="#E8E5E6" transform="translate(0,0)"/>
<path d="" fill="#E8E8E7" transform="translate(0,0)"/>
<path d="" fill="#E1E1E1" transform="translate(0,0)"/>
<path d="" fill="#E6E7E7" transform="translate(0,0)"/>
<path d="" fill="#E6E7E6" transform="translate(0,0)"/>
<path d="" fill="#E2E5E2" transform="translate(0,0)"/>
<path d="" fill="#E6E5E7" transform="translate(0,0)"/>
<path d="" fill="#F2F2F1" transform="translate(0,0)"/>
<path d="" fill="#F1F1F0" transform="translate(0,0)"/>
<path d="" fill="#E5E4E5" transform="translate(0,0)"/>
<path d="" fill="#E7E6E7" transform="translate(0,0)"/>
<path d="" fill="#E1E3E2" transform="translate(0,0)"/>
<path d="" fill="#E4E5E4" transform="translate(0,0)"/>
<path d="" fill="#E4E4E3" transform="translate(0,0)"/>
<path d="" fill="#E1E2E4" transform="translate(0,0)"/>
<path d="" fill="#F1F1F0" transform="translate(0,0)"/>
<path d="" fill="#F2F5F3" transform="translate(0,0)"/>
<path d="" fill="#F3F5F4" transform="translate(0,0)"/>
<path d="" fill="#E8E8E8" transform="translate(0,0)"/>
<path d="" fill="#F4F4F2" transform="translate(0,0)"/>
<path d="" fill="#F4F2F3" transform="translate(0,0)"/>
<path d="" fill="#F2F1F1" transform="translate(0,0)"/>
<path d="" fill="#E6E7E6" transform="translate(0,0)"/>
<path d="" fill="#E8EAE9" transform="translate(0,0)"/>
<path d="" fill="#E4E6E6" transform="translate(0,0)"/>
<path d="" fill="#F6F5F5" transform="translate(0,0)"/>
<path d="" fill="#EEEDEE" transform="translate(0,0)"/>
<path d="" fill="#F1F1F0" transform="translate(0,0)"/>
<path d="" fill="#EEEEEE" transform="translate(0,0)"/>
<path d="" fill="#F2F1F1" transform="translate(0,0)"/>
<path d="" fill="#E6E5E5" transform="translate(0,0)"/>
<path d="" fill="#E6E5E5" transform="translate(0,0)"/>
<path d="" fill="#E6E6E5" transform="translate(0,0)"/>
<path d="" fill="#E0E3E3" transform="translate(0,0)"/>
<path d="" fill="#F3F2EF" transform="translate(0,0)"/>
<path d="" fill="#F4F2F3" transform="translate(0,0)"/>
<path d="" fill="#F0F0EF" transform="translate(0,0)"/>
<path d="" fill="#F6F6F6" transform="translate(0,0)"/>
<path d="" fill="#EEEFEC" transform="translate(0,0)"/>
<path d="" fill="#F5F5F5" transform="translate(0,0)"/>
<path d="" fill="#E5E5E3" transform="translate(0,0)"/>
<path d="" fill="#EAEBE8" transform="translate(0,0)"/>
<path d="" fill="#E4E5E3" transform="translate(0,0)"/>
<path d="" fill="#E8E8E6" transform="translate(0,0)"/>
<path d="" fill="#E6E8E8" transform="translate(0,0)"/>
<path d="" fill="#E7E7E5" transform="translate(0,0)"/>
<path d="" fill="#E6E5E6" transform="translate(0,0)"/>
<path d="" fill="#F3F5F3" transform="translate(0,0)"/>
<path d="" fill="#E2E4E2" transform="translate(0,0)"/>
<path d="" fill="#EFF1EE" transform="translate(0,0)"/>
<path d="" fill="#F0F0EF" transform="translate(0,0)"/>
<path d="" fill="#F3F2F2" transform="translate(0,0)"/>
<path d="" fill="#F1F1F1" transform="translate(0,0)"/>
<path d="" fill="#F2F1F1" transform="translate(0,0)"/>
<path d="" fill="#F2F3F1" transform="translate(0,0)"/>
<path d="" fill="#969897" transform="translate(0,0)"/>
<path d="" fill="#F1F3F1" transform="translate(0,0)"/>
<path d="" fill="#F5F3F2" transform="translate(0,0)"/>
<path d="" fill="#F0F1F0" transform="translate(0,0)"/>
<path d="" fill="#E9EAE8" transform="translate(0,0)"/>
<path d="" fill="#E6E4E4" transform="translate(0,0)"/>
<path d="" fill="#E8E8E6" transform="translate(0,0)"/>
<path d="" fill="#F4F7F5" transform="translate(0,0)"/>
<path d="" fill="#F3F3F2" transform="translate(0,0)"/>
<path d="" fill="#F3F4F2" transform="translate(0,0)"/>
<path d="" fill="#F3F2F2" transform="translate(0,0)"/>
<path d="" fill="#EDEEF0" transform="translate(0,0)"/>
<path d="" fill="#E5E5E4" transform="translate(0,0)"/>
<path d="" fill="#E6E8E7" transform="translate(0,0)"/>
<path d="" fill="#E4E5E4" transform="translate(0,0)"/>
<path d="" fill="#E9E9E7" transform="translate(0,0)"/>
<path d="" fill="#E4E4E3" transform="translate(0,0)"/>
<path d="" fill="#F2F2F5" transform="translate(0,0)"/>
<path d="" fill="#F0F4F3" transform="translate(0,0)"/>
<path d="" fill="#E5E6E5" transform="translate(0,0)"/>
<path d="" fill="#EAEAEA" transform="translate(0,0)"/>
<path d="" fill="#E6E9E7" transform="translate(0,0)"/>
<path d="" fill="#E8E8E6" transform="translate(0,0)"/>
<path d="" fill="#F5F2F1" transform="translate(0,0)"/>
<path d="" fill="#F4F6F4" transform="translate(0,0)"/>
<path d="" fill="#EBECEC" transform="translate(0,0)"/>
<path d="" fill="#E6E5E3" transform="translate(0,0)"/>
<path d="" fill="#F3F2F2" transform="translate(0,0)"/>
<path d="" fill="#F3F4F2" transform="translate(0,0)"/>
<path d="" fill="#E7E8E7" transform="translate(0,0)"/>
<path d="" fill="#EFF2F0" transform="translate(0,0)"/>
<path d="" fill="#EAE9E9" transform="translate(0,0)"/>
<path d="" fill="#E9E9E8" transform="translate(0,0)"/>
<path d="" fill="#F2EFEF" transform="translate(0,0)"/>
<path d="" fill="#ECEAE9" transform="translate(0,0)"/>
<path d="" fill="#EFF0EF" transform="translate(0,0)"/>
<path d="" fill="#EEF1ED" transform="translate(0,0)"/>
<path d="" fill="#EFEDEC" transform="translate(0,0)"/>
<path d="" fill="#E6E5E5" transform="translate(0,0)"/>
<path d="" fill="#F1F1F1" transform="translate(0,0)"/>
<path d="" fill="#F2F0F1" transform="translate(0,0)"/>
<path d="" fill="#EEF0EF" transform="translate(0,0)"/>
<path d="" fill="#F0F0F2" transform="translate(0,0)"/>
<path d="" fill="#EFF1EF" transform="translate(0,0)"/>
<path d="" fill="#EFF0ED" transform="translate(0,0)"/>
<path d="" fill="#F4F3F1" transform="translate(0,0)"/>
<path d="" fill="#E8E9E8" transform="translate(0,0)"/>
<path d="" fill="#F3F3F2" transform="translate(0,0)"/>
<path d="" fill="#ECECEC" transform="translate(0,0)"/>
<path d="" fill="#EAECEB" transform="translate(0,0)"/>
<path d="" fill="#F3F4F1" transform="translate(0,0)"/>
<path d="" fill="#E4E4E4" transform="translate(0,0)"/>
<path d="" fill="#F1F2F0" transform="translate(0,0)"/>
<path d="" fill="#EEEDEC" transform="translate(0,0)"/>
<path d="" fill="#F2F0F1" transform="translate(0,0)"/>
<path d="" fill="#F4F5F3" transform="translate(0,0)"/>
<path d="" fill="#F0F1F1" transform="translate(0,0)"/>
<path d="" fill="#EFF1EE" transform="translate(0,0)"/>
<path d="" fill="#EEF1EF" transform="translate(0,0)"/>
<path d="" fill="#ECECED" transform="translate(0,0)"/>
<path d="" fill="#EEEDEE" transform="translate(0,0)"/>
<path d="" fill="#ECEFEF" transform="translate(0,0)"/>
<path d="" fill="#EBEBEA" transform="translate(0,0)"/>
<path d="" fill="#F1F1F1" transform="translate(0,0)"/>
<path d="" fill="#F2F4F6" transform="translate(0,0)"/>
<path d="" fill="#F1F1F1" transform="translate(0,0)"/>
<path d="" fill="#E8E6E6" transform="translate(0,0)"/>
<path d="" fill="#EDECEB" transform="translate(0,0)"/>
<path d="" fill="#E6E5E5" transform="translate(0,0)"/>
<path d="" fill="#EFEFEF" transform="translate(0,0)"/>
<path d="" fill="#F2F3F1" transform="translate(0,0)"/>
<path d="" fill="#F4F3F4" transform="translate(0,0)"/>
<path d="" fill="#F3F2F1" transform="translate(0,0)"/>
<path d="" fill="#F0EFEE" transform="translate(0,0)"/>
<path d="" fill="#EEEFEE" transform="translate(0,0)"/>
<path d="" fill="#F4F4F4" transform="translate(0,0)"/>
<path d="" fill="#E7E6E6" transform="translate(0,0)"/>
<path d="" fill="#F1EFF0" transform="translate(0,0)"/>
<path d="" fill="#F0EEEE" transform="translate(0,0)"/>
<path d="" fill="#F0EDEE" transform="translate(0,0)"/>
<path d="" fill="#F5F5F4" transform="translate(0,0)"/>
<path d="" fill="#F0F1EE" transform="translate(0,0)"/>
<path d="" fill="#F5F6F7" transform="translate(0,0)"/>
<path d="" fill="#F0EFF0" transform="translate(0,0)"/>
<path d="" fill="#EFF0EF" transform="translate(0,0)"/>
<path d="" fill="#F4F3F2" transform="translate(0,0)"/>
<path d="" fill="#F1F1F3" transform="translate(0,0)"/>
<path d="" fill="#EFEDED" transform="translate(0,0)"/>
<path d="" fill="#F6F3F4" transform="translate(0,0)"/>
<path d="" fill="#EFF0EE" transform="translate(0,0)"/>
<path d="" fill="#EDEEED" transform="translate(0,0)"/>
<path d="" fill="#ECEBEB" transform="translate(0,0)"/>
<path d="" fill="#F1F1EF" transform="translate(0,0)"/>
<path d="" fill="#F2F3F3" transform="translate(0,0)"/>
<path d="" fill="#F0EEEF" transform="translate(0,0)"/>
<path d="" fill="#F2F1F1" transform="translate(0,0)"/>
<path d="" fill="#F0F0F0" transform="translate(0,0)"/>
<path d="" fill="#F3F3F3" transform="translate(0,0)"/>
<path d="" fill="#F6F5F5" transform="translate(0,0)"/>
<path d="" fill="#F2F1F0" transform="translate(0,0)"/>
<path d="" fill="#F1F2F1" transform="translate(0,0)"/>
<path d="" fill="#F3F3F5" transform="translate(0,0)"/>
<path d="" fill="#F7F5F5" transform="translate(0,0)"/>
<path d="" fill="#F3F5F4" transform="translate(0,0)"/>
<path d="" fill="#F5F5F5" transform="translate(0,0)"/>
<path d="" fill="#F5F3F2" transform="translate(0,0)"/>
<path d="" fill="#FAF9F6" transform="translate(0,0)"/>
<path d="" fill="#F1F4F2" transform="translate(0,0)"/>
<path d="" fill="#F8F9FA" transform="translate(0,0)"/>
<path d="" fill="#F7F7F5" transform="translate(0,0)"/>
<path d="" fill="#EEEFEE" transform="translate(0,0)"/>
<path d="" fill="#F8F7F5" transform="translate(0,0)"/>
<path d="" fill="#F9FAF8" transform="translate(0,0)"/>
<path d="" fill="#EAEBE9" transform="translate(0,0)"/>
<path d="" fill="#F8F7F5" transform="translate(0,0)"/>
<path d="" fill="#F2F0F0" transform="translate(0,0)"/>
<path d="" fill="#E5E6E5" transform="translate(0,0)"/>
<path d="" fill="#F3F4F4" transform="translate(0,0)"/>
<path d="" fill="#E9E9E7" transform="translate(0,0)"/>
<path d="" fill="#F1F1F1" transform="translate(0,0)"/>
<path d="" fill="#CCCDCD" transform="translate(0,0)"/>
<path d="" fill="#F5F4F5" transform="translate(0,0)"/>
<path d="" fill="#F5F5F1" transform="translate(0,0)"/>
<path d="" fill="#DADCDC" transform="translate(0,0)"/>
<path d="" fill="#EDEFF0" transform="translate(0,0)"/>
<path d="" fill="#F2F0EF" transform="translate(0,0)"/>
<path d="" fill="#E6E4E4" transform="translate(0,0)"/>
<path d="" fill="#F3EFF0" transform="translate(0,0)"/>
<path d="" fill="#F2F0F1" transform="translate(0,0)"/>
<path d="" fill="#E4E4E4" transform="translate(0,0)"/>
<path d="" fill="#F4F3F3" transform="translate(0,0)"/>
<path d="" fill="#E4E5E5" transform="translate(0,0)"/>
<path d="" fill="#F1F1F0" transform="translate(0,0)"/>
<path d="" fill="#F4F2F1" transform="translate(0,0)"/>
<path d="" fill="#F1F1F0" transform="translate(0,0)"/>
<path d="" fill="#F3F5F3" transform="translate(0,0)"/>
<path d="" fill="#F4F5F2" transform="translate(0,0)"/>
<path d="" fill="#F4F6F5" transform="translate(0,0)"/>
<path d="" fill="#F6F5F5" transform="translate(0,0)"/>
<path d="" fill="#E9EAE9" transform="translate(0,0)"/>
<path d="" fill="#E2E2E1" transform="translate(0,0)"/>
<path d="" fill="#F6F4F4" transform="translate(0,0)"/>
<path d="" fill="#F3F4F3" transform="translate(0,0)"/>
<path d="" fill="#F8F7F6" transform="translate(0,0)"/>
<path d="" fill="#EDEEEE" transform="translate(0,0)"/>
<path d="" fill="#EDEEEC" transform="translate(0,0)"/>
<path d="" fill="#F5F4F6" transform="translate(0,0)"/>
<path d="" fill="#F6F7F7" transform="translate(0,0)"/>
<path d="" fill="#EFEEEE" transform="translate(0,0)"/>
<path d="" fill="#ECEDEC" transform="translate(0,0)"/>
<path d="" fill="#F4F6F5" transform="translate(0,0)"/>
<path d="" fill="#EFF1F1" transform="translate(0,0)"/>
<path d="" fill="#F1F1EF" transform="translate(0,0)"/>
<path d="" fill="#F2F4F2" transform="translate(0,0)"/>
<path d="" fill="#E5E6E6" transform="translate(0,0)"/>
<path d="" fill="#E2E1E3" transform="translate(0,0)"/>
<path d="" fill="#F5F4F2" transform="translate(0,0)"/>
<path d="" fill="#F4F4F5" transform="translate(0,0)"/>
<path d="" fill="#E2E3E1" transform="translate(0,0)"/>
<path d="" fill="#F2F2F0" transform="translate(0,0)"/>
<path d="" fill="#E2E6E6" transform="translate(0,0)"/>
<path d="" fill="#EDECEB" transform="translate(0,0)"/>
<path d="" fill="#F5F5F4" transform="translate(0,0)"/>
<path d="" fill="#F6F4F3" transform="translate(0,0)"/>
<path d="" fill="#DBDADB" transform="translate(0,0)"/>
<path d="" fill="#DDDEDE" transform="translate(0,0)"/>
<path d="" fill="#F2F2F3" transform="translate(0,0)"/>
<path d="" fill="#F2F2F2" transform="translate(0,0)"/>
<path d="" fill="#F0F2F3" transform="translate(0,0)"/>
<path d="" fill="#EDECE9" transform="translate(0,0)"/>
<path d="" fill="#D2D5D5" transform="translate(0,0)"/>
<path d="" fill="#D6D5D8" transform="translate(0,0)"/>
<path d="" fill="#F5F5F6" transform="translate(0,0)"/>
<path d="" fill="#E9EBE8" transform="translate(0,0)"/>
<path d="" fill="#ECEBEA" transform="translate(0,0)"/>
<path d="" fill="#F3F3F1" transform="translate(0,0)"/>
<path d="" fill="#F6F6F4" transform="translate(0,0)"/>
<path d="" fill="#F2F5F3" transform="translate(0,0)"/>
<path d="" fill="#E6E8E8" transform="translate(0,0)"/>
<path d="" fill="#585857" transform="translate(0,0)"/>
<path d="" fill="#656464" transform="translate(0,0)"/>
<path d="" fill="#F5F6F2" transform="translate(0,0)"/>
<path d="" fill="#EDEEED" transform="translate(0,0)"/>
<path d="" fill="#F2F2F3" transform="translate(0,0)"/>
<path d="" fill="#F3F1F4" transform="translate(0,0)"/>
<path d="" fill="#F2F3F2" transform="translate(0,0)"/>
<path d="" fill="#E9E9E9" transform="translate(0,0)"/>
<path d="" fill="#E9E9E8" transform="translate(0,0)"/>
<path d="" fill="#ECECEC" transform="translate(0,0)"/>
<path d="" fill="#E5E6E7" transform="translate(0,0)"/>
<path d="" fill="#F3F3F3" transform="translate(0,0)"/>
<path d="" fill="#F4F4F3" transform="translate(0,0)"/>
<path d="" fill="#F0EFEF" transform="translate(0,0)"/>
<path d="" fill="#F6F3F4" transform="translate(0,0)"/>
<path d="" fill="#EDEEED" transform="translate(0,0)"/>
<path d="" fill="#F4F4F2" transform="translate(0,0)"/>
<path d="" fill="#E7E7E9" transform="translate(0,0)"/>
<path d="" fill="#EDEDEC" transform="translate(0,0)"/>
<path d="" fill="#F3F4F1" transform="translate(0,0)"/>
<path d="" fill="#F1EFEE" transform="translate(0,0)"/>
<path d="" fill="#EDEEED" transform="translate(0,0)"/>
<path d="" fill="#EDEEEB" transform="translate(0,0)"/>
<path d="" fill="#F4F2F3" transform="translate(0,0)"/>
<path d="" fill="#EDEDEC" transform="translate(0,0)"/>
<path d="" fill="#EEEDEC" transform="translate(0,0)"/>
<path d="" fill="#F1EFEF" transform="translate(0,0)"/>
<path d="" fill="#F1F0EF" transform="translate(0,0)"/>
<path d="" fill="#EFEFED" transform="translate(0,0)"/>
<path d="" fill="#F0F0EE" transform="translate(0,0)"/>
<path d="" fill="#ECEBEB" transform="translate(0,0)"/>
<path d="" fill="#F8F6F4" transform="translate(0,0)"/>
<path d="" fill="#EBECEE" transform="translate(0,0)"/>
<path d="" fill="#F5F6F6" transform="translate(0,0)"/>
<path d="" fill="#EDEFEF" transform="translate(0,0)"/>
<path d="" fill="#F5F6F3" transform="translate(0,0)"/>
<path d="" fill="#E6E5E6" transform="translate(0,0)"/>
<path d="" fill="#EEECEE" transform="translate(0,0)"/>
<path d="" fill="#EFF1EF" transform="translate(0,0)"/>
<path d="" fill="#F9FBFB" transform="translate(0,0)"/>
<path d="" fill="#F8F8F7" transform="translate(0,0)"/>
<path d="" fill="#F1F1F0" transform="translate(0,0)"/>
<path d="" fill="#ECEDED" transform="translate(0,0)"/>
<path d="" fill="#F1F2F1" transform="translate(0,0)"/>
<path d="" fill="#EFF0F0" transform="translate(0,0)"/>
<path d="" fill="#F3F5F6" transform="translate(0,0)"/>
<path d="" fill="#F7F6F5" transform="translate(0,0)"/>
<path d="" fill="#F6F8F5" transform="translate(0,0)"/>
<path d="" fill="#EBEBEB" transform="translate(0,0)"/>
<path d="" fill="#F4F4F2" transform="translate(0,0)"/>
<path d="" fill="#F4F6F5" transform="translate(0,0)"/>
<path d="" fill="#F3F4F4" transform="translate(0,0)"/>
<path d="" fill="#F4F4F5" transform="translate(0,0)"/>
<path d="" fill="#EFF0EF" transform="translate(0,0)"/>
<path d="" fill="#F7F7F4" transform="translate(0,0)"/>
<path d="" fill="#F5F3F5" transform="translate(0,0)"/>
<path d="" fill="#E9EAE9" transform="translate(0,0)"/>
<path d="" fill="#E7E8E7" transform="translate(0,0)"/>
<path d="" fill="#EEEFEE" transform="translate(0,0)"/>
<path d="" fill="#E7E9E9" transform="translate(0,0)"/>
<path d="" fill="#EBE9EA" transform="translate(0,0)"/>
<path d="" fill="#F4F7F5" transform="translate(0,0)"/>
<path d="" fill="#EAEAEA" transform="translate(0,0)"/>
<path d="" fill="#EBECEB" transform="translate(0,0)"/>
<path d="" fill="#F0F1F0" transform="translate(0,0)"/>
<path d="" fill="#EEEEEC" transform="translate(0,0)"/>
<path d="" fill="#ECECEA" transform="translate(0,0)"/>
<path d="" fill="#F2F0F1" transform="translate(0,0)"/>
<path d="" fill="#F5F5F6" transform="translate(0,0)"/>
<path d="" fill="#EBEBEA" transform="translate(0,0)"/>
<path d="" fill="#EEEEEC" transform="translate(0,0)"/>
<path d="" fill="#EEEEED" transform="translate(0,0)"/>
<path d="" fill="#F1F1F1" transform="translate(0,0)"/>
<path d="" fill="#F7F6F4" transform="translate(0,0)"/>
<path d="" fill="#E9E8E8" transform="translate(0,0)"/>
<path d="" fill="#F6F8F6" transform="translate(0,0)"/>
<path d="" fill="#F5F5F6" transform="translate(0,0)"/>
<path d="" fill="#F5F4F4" transform="translate(0,0)"/>
<path d="" fill="#E9E8E6" transform="translate(0,0)"/>
<path d="" fill="#E9EAE8" transform="translate(0,0)"/>
<path d="" fill="#FCFCF8" transform="translate(0,0)"/>
<path d="" fill="#ECEDEC" transform="translate(0,0)"/>
<path d="" fill="#F6F7F4" transform="translate(0,0)"/>
<path d="" fill="#E8E8E7" transform="translate(0,0)"/>
<path d="" fill="#EBEDEC" transform="translate(0,0)"/>
<path d="" fill="#F5F4F4" transform="translate(0,0)"/>
<path d="" fill="#F3F3F3" transform="translate(0,0)"/>
<path d="" fill="#EBEBE9" transform="translate(0,0)"/>
<path d="" fill="#F4F2F2" transform="translate(0,0)"/>
<path d="" fill="#F5F5F5" transform="translate(0,0)"/>
<path d="" fill="#EDEDEB" transform="translate(0,0)"/>
<path d="" fill="#F5F7F5" transform="translate(0,0)"/>
<path d="" fill="#F4F5F6" transform="translate(0,0)"/>
<path d="" fill="#F4F6F3" transform="translate(0,0)"/>
<path d="" fill="#EDEBED" transform="translate(0,0)"/>
<path d="" fill="#F7F6F7" transform="translate(0,0)"/>
<path d="" fill="#EFEEF0" transform="translate(0,0)"/>
<path d="" fill="#E8EAE8" transform="translate(0,0)"/>
<path d="" fill="#EDEEEC" transform="translate(0,0)"/>
<path d="" fill="#F3F6F4" transform="translate(0,0)"/>
<path d="" fill="#F4F3F3" transform="translate(0,0)"/>
<path d="" fill="#F4F4F2" transform="translate(0,0)"/>
<path d="" fill="#F4F4F4" transform="translate(0,0)"/>
<path d="" fill="#F3F2F3" transform="translate(0,0)"/>
<path d="" fill="#F4F8F4" transform="translate(0,0)"/>
<path d="" fill="#F3F3F1" transform="translate(0,0)"/>
<path d="" fill="#F4F4F4" transform="translate(0,0)"/>
<path d="" fill="#F5F6F4" transform="translate(0,0)"/>
<path d="" fill="#E9EBEA" transform="translate(0,0)"/>
<path d="" fill="#EAEAEB" transform="translate(0,0)"/>
<path d="" fill="#E9E8EB" transform="translate(0,0)"/>
<path d="" fill="#EAEAEB" transform="translate(0,0)"/>
<path d="" fill="#D2D3D5" transform="translate(0,0)"/>
<path d="" fill="#E6E9E8" transform="translate(0,0)"/>
<path d="" fill="#EDEFEB" transform="translate(0,0)"/>
<path d="" fill="#DCDCDC" transform="translate(0,0)"/>
<path d="" fill="#ECECEB" transform="translate(0,0)"/>
<path d="" fill="#ECECEB" transform="translate(0,0)"/>
<path d="" fill="#EAEAE9" transform="translate(0,0)"/>
<path d="" fill="#E3E5E3" transform="translate(0,0)"/>
<path d="" fill="#EBEDEC" transform="translate(0,0)"/>
<path d="" fill="#DDDCDE" transform="translate(0,0)"/>
<path d="" fill="#ECECEB" transform="translate(0,0)"/>
<path d="" fill="#E2E4E2" transform="translate(0,0)"/>
<path d="" fill="#F3F3F2" transform="translate(0,0)"/>
<path d="" fill="#F2F2F0" transform="translate(0,0)"/>
<path d="" fill="#ECEEED" transform="translate(0,0)"/>
<path d="" fill="#E6E7E6" transform="translate(0,0)"/>
<path d="" fill="#ECEDEC" transform="translate(0,0)"/>
<path d="" fill="#E2E2E2" transform="translate(0,0)"/>
<path d="" fill="#E8E8E7" transform="translate(0,0)"/>
<path d="" fill="#E5E5E5" transform="translate(0,0)"/>
<path d="" fill="#E9EAEA" transform="translate(0,0)"/>
<path d="" fill="#E7E8E9" transform="translate(0,0)"/>
<path d="" fill="#E6E8E6" transform="translate(0,0)"/>
<path d="" fill="#EBEDEA" transform="translate(0,0)"/>
<path d="" fill="#EAEAEB" transform="translate(0,0)"/>
<path d="" fill="#E4E6E7" transform="translate(0,0)"/>
<path d="" fill="#E5E7E6" transform="translate(0,0)"/>
<path d="" fill="#E8E8E8" transform="translate(0,0)"/>
<path d="" fill="#F2F2F2" transform="translate(0,0)"/>
<path d="" fill="#ECECEB" transform="translate(0,0)"/>
<path d="" fill="#E5E6E5" transform="translate(0,0)"/>
<path d="" fill="#E3E3E2" transform="translate(0,0)"/>
<path d="" fill="#E8EAE9" transform="translate(0,0)"/>
<path d="" fill="#E3E5E3" transform="translate(0,0)"/>
<path d="" fill="#EAEBEA" transform="translate(0,0)"/>
<path d="" fill="#E7E8E9" transform="translate(0,0)"/>
<path d="" fill="#EBEAEB" transform="translate(0,0)"/>
<path d="" fill="#EBEAEB" transform="translate(0,0)"/>
<path d="" fill="#E8E9E7" transform="translate(0,0)"/>
<path d="" fill="#F4F1F2" transform="translate(0,0)"/>
<path d="" fill="#EEF1F0" transform="translate(0,0)"/>
<path d="" fill="#EFF2F0" transform="translate(0,0)"/>
<path d="" fill="#EFF0F0" transform="translate(0,0)"/>
<path d="" fill="#EDEFEF" transform="translate(0,0)"/>
<path d="" fill="#E9EAEA" transform="translate(0,0)"/>
<path d="" fill="#E8E9E9" transform="translate(0,0)"/>
<path d="" fill="#E9EBEA" transform="translate(0,0)"/>
<path d="" fill="#E8E7E7" transform="translate(0,0)"/>
<path d="" fill="#E8E8E9" transform="translate(0,0)"/>
<path d="" fill="#EDEFED" transform="translate(0,0)"/>
<path d="" fill="#EBEAE9" transform="translate(0,0)"/>
<path d="" fill="#606160" transform="translate(0,0)"/>
<path d="" fill="#353734" transform="translate(0,0)"/>
<path d="" fill="#555556" transform="translate(0,0)"/>
<path d="" fill="#242323" transform="translate(0,0)"/>
</svg>
